/* XPM */
static char *f8fe4c0962914212a02203ed82a5912d6UcPU93a11NFKaJH[] = {
/* columns rows colors chars-per-pixel */
"64 64 202 2 ",
"   c #000000",
".  c #0C0102",
"X  c #0C0B00",
"o  c #130303",
"O  c #1C0303",
"+  c #110C00",
"@  c #0E1200",
"#  c #131300",
"$  c #1A1700",
"%  c #1A1A00",
"&  c #240404",
"*  c #2B0606",
"=  c #200A00",
"-  c #330606",
";  c #3A0405",
":  c #370808",
">  c #3C0808",
",  c #231E00",
"<  c #282700",
"1  c #2A2600",
"2  c #332E00",
"3  c #3B3500",
"4  c #4A0E00",
"5  c #440A0A",
"6  c #4A0A0A",
"7  c #580000",
"8  c #550C0C",
"9  c #5B0D0D",
"0  c #581805",
"q  c #6A0400",
"w  c #630E0E",
"e  c #6B0F0F",
"r  c #750707",
"t  c #6A0C10",
"y  c #770F11",
"u  c #6E1010",
"i  c #731010",
"p  c #7B1111",
"a  c #7C1910",
"s  c #5D3A00",
"d  c #4B4300",
"f  c #534A01",
"g  c #5D5300",
"h  c #645A00",
"j  c #685D00",
"k  c #636300",
"l  c #706400",
"z  c #7D7D00",
"x  c #8D0000",
"c  c #9C0000",
"v  c #901900",
"b  c #841313",
"n  c #8B1414",
"m  c #881C12",
"M  c #941515",
"N  c #9C1616",
"B  c #9F1018",
"V  c #A40707",
"C  c #B80700",
"Z  c #A31617",
"A  c #A81816",
"S  c #A61718",
"D  c #A61818",
"F  c #AB1818",
"G  c #BA171B",
"H  c #B51A1A",
"J  c #BC1B1B",
"K  c #913C00",
"L  c #8E2311",
"P  c #C90900",
"I  c #DA0C0A",
"U  c #DD0F10",
"Y  c #CE1616",
"T  c #C7161A",
"R  c #C41B1C",
"E  c #CA1B1A",
"W  c #D41413",
"Q  c #DA1211",
"!  c #D51A15",
"~  c #E50506",
"^  c #E90204",
"/  c #EB0709",
"(  c #E40C0C",
")  c #F50304",
"_  c #FE0300",
"`  c #FE0C00",
"'  c #E7190C",
"]  c #FE1300",
"[  c #F41B05",
"{  c #FE1E01",
"}  c #CD2B17",
"|  c #C5201B",
" . c #CA251A",
".. c #CC2A19",
"X. c #D52B13",
"o. c #CF3016",
"O. c #CD3C17",
"+. c #D73913",
"@. c #D43B14",
"#. c #F02607",
"$. c #FF2400",
"%. c #F42C05",
"&. c #FE2B01",
"*. c #E2300D",
"=. c #F43305",
"-. c #F63804",
";. c #FE3C00",
":. c #955C08",
">. c #BD5B10",
",. c #837300",
"<. c #897B00",
"1. c #A26305",
"2. c #D84A00",
"3. c #DE4D0F",
"4. c #CA4217",
"5. c #CC4116",
"6. c #CD4B15",
"7. c #DA4411",
"8. c #D24B14",
"9. c #DD4910",
"0. c #CC5314",
"q. c #D15B13",
"w. c #FF4300",
"e. c #FF4C00",
"r. c #E6580C",
"t. c #FD5401",
"y. c #F35E06",
"u. c #FF5D00",
"i. c #D26312",
"p. c #D86611",
"a. c #DE7010",
"s. c #EB6209",
"d. c #F36506",
"f. c #FE6300",
"g. c #F36C06",
"h. c #FE6B01",
"j. c #F77304",
"k. c #FD7401",
"l. c #F57F00",
"z. c #FE7C00",
"x. c #848400",
"c. c #8D8D00",
"v. c #938400",
"b. c #9B8A00",
"n. c #969800",
"m. c #A89600",
"M. c #B29F00",
"N. c #ABAD00",
"B. c #B6A200",
"V. c #CF820B",
"C. c #C79800",
"Z. c #E98800",
"A. c #F78100",
"S. c #FE8300",
"D. c #F58C00",
"F. c #FC8B00",
"G. c #F49600",
"H. c #FB9400",
"J. c #F39C00",
"K. c #FA9B00",
"L. c #CEA600",
"P. c #CBB600",
"I. c #D5BC01",
"U. c #E8A600",
"Y. c #F6A300",
"T. c #FCA400",
"R. c #F5AC00",
"E. c #FEAC00",
"W. c #E4B400",
"Q. c #E5BF00",
"!. c #EAB802",
"~. c #F4B400",
"^. c #FFB500",
"/. c #F2BB00",
"(. c #FEBD01",
"). c #CBCC00",
"_. c #DCC500",
"`. c #DAC800",
"'. c #D0D100",
"]. c #DDDB00",
"[. c #E2C500",
"{. c #EEC200",
"}. c #E5CD00",
"|. c #EFCD00",
" X c #F1C400",
".X c #FEC400",
"XX c #F1CA00",
"oX c #FECA00",
"OX c #E2D500",
"+X c #EED500",
"@X c #EED600",
"#X c #EED900",
"$X c #F2D500",
"%X c #FFD400",
"&X c #F1DC00",
"*X c #FFDE00",
"=X c #F4E400",
"-X c #FEE400",
";X c #F6EB00",
":X c #FFE900",
">X c #FCF400",
",X c #FEFC00",
/* pixels */
"                                                                                                                                ",
"                                                                O 5 O                                                           ",
"                                                                8 R 5                                                           ",
"                                                                9 R 5                                                           ",
"                                                                8 J 5                                                           ",
"                                                                O : i p o                                                       ",
"                                    - > .                           n H O             . .                                       ",
"                                    b H O                           n H O           . i n n 8                                   ",
"                            & i i u 9 8 .     & 8 &             & > p b o           o Z | E p                                   ",
"                            > R R J >         8 R 6             u J -               o D E R i                                   ",
"                            5 R i * X         9 R 5             : u 9 5 .           . i N R i                                   ",
"                            5 R w O           9 R 6               . N D o               : R u                                   ",
"                            6 R J D *         9 R D n o     > n b b H H p 6             O i >                                   ",
"                            - b F J 8 *       8 Z D M O   o w E R R R R R b .                                                   ",
"                                a R R Z o     . o . .   * D H R R R R R R H M M n &     & p >                                   ",
"                        , <.d   a 4.a 8   < g <     . - w Y } } o.o.o...| R R H D *     > J 9                                   ",
"                        3 }.,.  b._.<     f $Xj     O S W _ ;.z.k.z.l.s.| R R 9 O       . * o                                   ",
"                        @ 3 <   :.V.,     h $X1.t w y Q ' ;.k.Y.F.z.s.3.| D n :                                                 ",
"                    . , $       y Z O     g }.q.R E E ) &.z.R.@XK.j. .R E u                                                     ",
"                    , P.b.      o O       # 2 L R R } t.l./.XX@XH.j...Z w -         o 5 6 5 O                                   ",
"                    % b.l       & & .     # , m E T X.z.K.@X+X+XH.j. .n             * J R R 6                                   ",
"                              . n S o     h _.0.T / [ k.Y.+X+X+XH.g. .b     . l <.# - J M 8 &             * 6 o                 ",
"                            : 9 D D o $ f b.@Xq.T ) $.k.Y.@X+X|.H.g.| b       M.`.% - J u                 i J -                 ",
"                            i | | D . d @X@X@X6.T ) $.k.Y.@X@X$XH.g. .p     X B.I.% : R F n -         - p 9 6 o                 ",
"                            i E R S . , j M.@X6.R -.e.z.Y.#X@X@XF.g.| n : o . v.m.# : R R R >         6 J 6                     ",
"                            p R R S O     ,.|.6...j.S.z.Y.#X@XXXF.g.| R J 6   X +   > J R J >         o & .                     ",
"                            p R R J N 9   <.@X6. .k.S.z.Y.@X@X|.F.d.' W R 6     . > i W E J 9 & .     . & .                     ",
"                            b E E E R b o ,.I.4. .g.z.z.R.@X@X|.F.f._ ( R 6     & F Q _ U R R Z o     8 H >                     ",
"                            b E ) / R J F 0 , Z E ] ;.z.R.@X@X|.F.u._ ) ( B e o & H Q _ Q R R D o     5 b *                     ",
"                    o 5 &   n E %.#.W E R 6 . i A / =.z.R.@X#XXXH.h.] _ _ Q H & - H Q _ Q R R D o                               ",
"                    > R w   n ..j.f._ ( R 5   . - H +.z.~.#X@X@X|.R.h.;._ ! R N Z J +.u.y.r...Z o                               ",
"                    O 9 *   n ..k.k.w.*.R p 6 . & G 7.z.Y./.XX@X#X/.S.e.{ Q E R R R 7.S.S.A.X.Z O                               ",
"                            M ..j.S.S.3.R R H O * G 7.S.z.S. X@X@X/.S.k.k.$.) T J R 7.S.z.k.[ ~ Z 9                             ",
"                          . M ..j.z.S.j.r.o.F O * G X.;.h.S. X@X@X{.J.D.S.e.%.Q Y R 9.S.S.k.&.[ E b O .                         ",
"                          . M } h.k.S.S.F.@.F & > H Q _ t.F. X@X@X}._.J.z.S.h.` / R 3.S.S.k.z.d.| J F 5                         ",
"                          . N E ` ;.z.^.-X8.G N Z R U _ A./.@X@X@X@X}.!.U.R.K.t.=.U #.e.H.E.F.d.! Y R u * .                     ",
"                    & 6 5 6 D E ( =.z.oX>Xp.......T ( _ G.@X|.|.+X+X+X}._.@X{.F.u._ _ ` ^.>XF.f._ ( J R F &                     ",
"                    8 R R R R R R +.z.oX,XH.k.z.t.) _ _ G.@XG.K.+X+X+X+X@X@X XF.h.u.$._ R.=X/.l._ #.3.} H u 5                   ",
"                    9 R R | 9.7.R X.e.^.,X.XT.S.f.&.] _ D./.F.H.|.+X@X+X@X@X XF.S.S.;.] Y.@X#XJ.` w.S.@.R R N .                 ",
"                    w R J  .j.g.| Q _ K.,X,X-XF.z.z.;._ f.S.z.H.+X}._.}.@X@X Xz.z.z.k.h./.@X@X~.u.h.z.=.( E M                   ",
"                    w R R  .j.j.s.=._ ;.k.-X>X.XT.S.;._ u.S.S.H.+X}.}.@X&X#X{.H.F.S.S.S. X@X@X/.F.F.z.$.) E n .                 ",
"                    u R R  .g.j.F.e.` _ ] oX,X,XoXS.;._ f.S.k.K.+X+X@X;X,X&X@X@X~.k.z.S. X@X@X@XXXY.k.$.) E n .                 ",
"                    u R R |  .7.k.k.h.f.f.;.h.>X>X%Xt._ f.S.z.G.}.+X@X=X=X@X@X#X XE.F.F. X@X@XXX/.E.H.%./ E n                   ",
"                    i R J R R @.z.S.z.S.k.$.w.%X-X:Xu.] h.z.S.G._.}.@X@X@X@X@X@X;X,XT.S. X@X#X~.z..X>X8.T E b                   ",
"                    i E R R R @.z.z.z.z.z.k.u.{ { $.t.h.k.l.W.Q.}.+X@X;X-XY.K.K.T.^.F.F. X$X@XXX^.(..XO.R R b                   ",
"                    > e F R R 8.Y.J.K.S.S.S.h.$.{ $.f.S.F.G._.}.+X+X$X;X:XF.z.S.S.S.z.S.XX@X$X=X,XE.j.o.R E p .                 ",
"                      . N R T q.@X@X@XH.k.z.z.z.z.k.k.S.W.}.+X+X+X+X+X&XXXF.K.-X-X*XK.F.{.@X#XJ.t.T..XO.R R p                   ",
"                      o Z R R i.@X@X$X/.R.R.K.S.H.Y.Y.Y.[.}.@X@X@X+X+X@XXXK.E.-X-X:XT.F.|.#X#Xl.] T.=X5.J R i                   ",
"                      o M H R i.@X@X@X@X@X#X/.z.R.#X@X@X@X+X+X$X@X$X@X@X&X,XoXF.F.F./.|.@X@X$X$X%Xa.5.| S : O                   ",
"                        o 6 J p.&X&X@X@X@X@X|.~. X@X@X@X+X+X+X&X;X/.R.~.~.oXE.z.F.J. X@X@X&X&X;X,X>.B F p .                     ",
"                          * M 0.!.!./.$X@X@X@X@X@X@X@X@X+X+X@X=X,XT.k.S.z.z.z.z.R.@X@X@X@X&X,X,X,Xf . o .                       ",
"                            . 0 } ' $.~.#X$X&X@X@X@X@X@X@X@X@X&X=X X~.~.~.~.~.R. X@X@X#X=XoXH.C.n.2                             ",
"                              > n V C Z.U.B.L.R.XX&X@X@X@X@X#X&X$X@X#X#X@X#X@X#X@X@X+X@X,XT._ q                                 ",
"                                    O I P + q ` T.,X&X@X@X=X>X,X,X,X,X,X,X>X>X>Xz.;.w.2.h s q &                                 ",
"                                    o r q   ; c 1.N.OX=X&X;X,X-X.X`.).'.OX%X#X].2.^ ^ C .                                       ",
"                                                  # '.,X,X,X,Xk.) 4 X # 0 ] v % = & & O                                         ",
"                                                  X k z x.x.c.K x &     ; V 7                                                   ",
"                                                                                                                                ",
"                                                                                                                                ",
"                                                                                                                                ",
"                                                                                                                                ",
"                                                                                                                                ",
"                                                                                                                                ",
"                                                                                                                                "
};
