/* XPM */
static char *result[] = {
/* columns rows colors chars-per-pixel */
"64 64 201 2 ",
"   c white",
".  c gray92",
"X  c #DADADA",
"o  c #DDDDDD",
"O  c gray95",
"+  c gainsboro",
"@  c gray97",
"#  c #F3F3F3",
"$  c gray86",
"%  c #E9E9E9",
"&  c gray93",
"*  c #F1F1F1",
"=  c gray90",
"-  c #C1C1C1",
";  c #C0C0C0",
":  c gray",
">  c gray85",
",  c #868686",
"<  c #353535",
"1  c gray26",
"2  c gray70",
"3  c gray57",
"4  c #3A3A3A",
"5  c #CBCBCB",
"6  c gray69",
"7  c #373737",
"8  c #818181",
"9  c #FEFEFE",
"0  c #848484",
"q  c gray67",
"w  c #131313",
"e  c #0E0E0E",
"r  c gray6",
"t  c #656565",
"y  c gray94",
"u  c #939393",
"i  c #2C2C2C",
"p  c #040404",
"a  c #484848",
"s  c #626262",
"d  c #5F5F5F",
"f  c gray38",
"g  c #6C6C6C",
"h  c gray77",
"j  c gray98",
"k  c gray65",
"l  c gray28",
"z  c #010101",
"x  c #535353",
"c  c gray17",
"v  c black",
"b  c #565656",
"n  c #A9A9A9",
"m  c #ECECEC",
"M  c gray64",
"N  c gray19",
"B  c gray56",
"V  c gray52",
"C  c gray1",
"Z  c #191919",
"A  c #7B7B7B",
"S  c #838383",
"D  c gray73",
"F  c #CECECE",
"G  c #101010",
"H  c gray76",
"J  c #090909",
"K  c #060606",
"L  c gray99",
"P  c #8B8B8B",
"I  c gray23",
"U  c #AFAFAF",
"Y  c #020202",
"T  c #EFEFEF",
"R  c gray50",
"E  c gray12",
"W  c #D7D7D7",
"Q  c gray53",
"!  c gray16",
"~  c gray35",
"^  c LightGray",
"/  c #D2D2D2",
"(  c #323232",
")  c #070707",
"_  c gray15",
"`  c #C3C3C3",
"'  c gray13",
"]  c gray10",
"[  c #5D5D5D",
"{  c gray91",
"}  c #E4E4E4",
"|  c gray42",
" . c #727272",
".. c #B7B7B7",
"X. c #888888",
"o. c gray49",
"O. c #CACACA",
"+. c #7E7E7E",
"@. c gray63",
"#. c #0B0B0B",
"$. c #181818",
"%. c #9F9F9F",
"&. c gray45",
"*. c #7C7C7C",
"=. c gray36",
"-. c #808080",
";. c #898989",
":. c gray8",
">. c #9B9B9B",
",. c #1B1B1B",
"<. c gray30",
"1. c gray22",
"2. c gray66",
"3. c #111111",
"4. c #343434",
"5. c #2A2A2A",
"6. c #E1E1E1",
"7. c #F9F9F9",
"8. c gray44",
"9. c #5B5B5B",
"0. c #9D9D9D",
"q. c gray3",
"w. c #151515",
"e. c gray2",
"r. c gray32",
"t. c #505050",
"y. c #585858",
"u. c #555555",
"i. c gray87",
"p. c gray81",
"a. c #FBFBFB",
"s. c #3E3E3E",
"d. c #3C3C3C",
"f. c #606060",
"g. c gray33",
"h. c gray46",
"j. c gray7",
"k. c #989898",
"l. c #767676",
"z. c #4C4C4C",
"x. c #1D1D1D",
"c. c #646464",
"v. c #676767",
"b. c #1E1E1E",
"n. c #717171",
"m. c gray21",
"M. c #8D8D8D",
"N. c #393939",
"B. c #A0A0A0",
"V. c gray71",
"C. c #6D6D6D",
"Z. c #D5D5D5",
"A. c #8E8E8E",
"S. c gray11",
"D. c #3F3F3F",
"F. c gray40",
"G. c #AAAAAA",
"H. c #0C0C0C",
"J. c gray24",
"K. c gray4",
"L. c gray47",
"P. c #FDFDFD",
"I. c #272727",
"U. c #A2A2A2",
"Y. c #686868",
"T. c #ACACAC",
"R. c #494949",
"E. c gray20",
"W. c #EAEAEA",
"Q. c gray5",
"!. c #9A9A9A",
"~. c gray68",
"^. c #444444",
"/. c #2D2D2D",
"(. c #A7A7A7",
"). c #F6F6F6",
"_. c gray55",
"`. c gray48",
"'. c #AEAEAE",
"]. c #6A6A6A",
"[. c gray88",
"{. c gray61",
"}. c gray62",
"|. c gray29",
" X c DimGray",
".X c #CDCDCD",
"XX c #464646",
"oX c #202020",
"OX c gray83",
"+X c #232323",
"@X c #777777",
"#X c #E7E7E7",
"$X c #B4B4B4",
"%X c gray9",
"&X c #F8F8F8",
"*X c gray84",
"=X c #C5C5C5",
"-X c #EEEEEE",
";X c gray79",
":X c #C8C8C8",
">X c gray89",
/* pixels */
"                                                                                                                                ",
"                                                                                                                                ",
"                                                                                                                                ",
"                                                                                                                                ",
"                                                                                                                                ",
"                                                                                                                                ",
"                                                                                                                                ",
"                                                                                                                                ",
"                                                                                                                                ",
"                                                                                                                                ",
"                                                                                                                                ",
"                                                                                                                                ",
"                                                                                                                                ",
"                                                                                                                                ",
"                                                                                                                                ",
"                                                                                                                                ",
"                                                                                                                                ",
"                                                                                                                                ",
"                      . X X X X X X o O       . X X X + @       # $ $ %         & X X * = - ; ; ; ; ; ; ; ; : >                 ",
"                      , < < < < < < 1 2       3 < < < 4 5       6 7 7 8       9 0 < < q 3 w e r r r r r r r e t                 ",
"                  y u i p a s d d f g h   j k l z x c v b n     u v v c 3 m * M N v v B V C v Z A S S S S S S D                 ",
"                  F v v G H               . J v K L P v v I     u v v v v h U Y v v v B V C v N T                               ",
"                R E v s W @             Q ! z ~ ^   O / ( ) _ ` u v v v v ' ] v v v v u , C v N T                               ",
"                [ v v R     { D D D : } | v v  .      # 4 v K ..u v v v v v v v v v v u X.p v Z o., , Q O.                      ",
"                [ v v +.    @.#.#.#.$.%.| v v &.      # 4 v K ..u v v v v v v v v v v u X.p v v v v v v *.                      ",
"                =.v v -.    { ;.:.v e >.| v v ,.<.<.<.l G v K ..u v v 1.2.:.3.%.4.v v u Q p v 5.W 6.6.= 7.                      ",
"                8.r v 9.W j   % 5.v r 0.| v v q.$.$.$.w.e.v K ..u v v r.  t.y.  u.v v u V C v ( *                               ",
"                  i.v v E p.  % ! v r 0.| v v &.      a.s.v K ..u v v r.        u.v v u V C v ( O                               ",
"                  y , d.J <.f.g.e v e >.| v v h.      a.s.v K ..u v v r.        u.v v u V C v j.y.[ [ [ [ [ [ k.                ",
"                      S w.w.w.w.:.w ' k l.w w S       a.z.w x.h @.,.,.c.        v.,.,.%.k.b.Z ,.,.,.,.,.,.,.,.n.                ",
"                                                                                                                                ",
"                                                                                                                                ",
"                                                                                                                                ",
"                                                                                                                                ",
"                  > m.m.m.m.m.m.m.S #   M.N.N.B.      L | 4 s.O.V.:.G 3.w w w w 3.G G C.0.N.m.m.N.4 N.m.m.l @                   ",
"                Z.A.v S.D.s.s.1.J 4 n % F.v v R       a.s.v K ..G.C v Z d s s s s s s M A v v H.1.J.s.s.G K.n o                 ",
"                f.v v L.P.a.a.} I.v 3.U.Y.v v 8       a.s.v K ..T.C v R.                o.v v E.m 7.a.a.1 v v X.                ",
"                [ v v -.      W.c v Q.!.Y.v v -.      a.s.v K ..~.C v a                 o.v v 1.@       ^.v v ;.                ",
"                [ v v -.      W.c v Q.!.Y.v v | Z.    * N.v K ..~.C v /.(.q q G.X       A v v 1.@   ).o 4 v v ;.                ",
"                [ v v -.      W.c v Q.!.Y.v v v v P._.C v v K ..~.C v v v v v v l.      `.v v 1.@   '.C v v v Q                 ",
"                [ v v -.      W.c v Q.!.n f C v v ].d.v v G S [.~.C v c {.}.}.}.F       `.v v $.8.h.l z l l.l.`                 ",
"                [ v v -.      W.c v Q.!.  T :.C v v v v q.s.    ~.C v |.                `.v v Y #.z v v P 6.9                   ",
"                =.v v R       W.5.v Q.!.    y Y.v v v v M 7.    ~.C v |.                `.v v 4.{ c v v v H.O                   ",
"                >.l v 4 -.-.-.&.w Z  X.X      U.XXv oXt OX      ~.C v +X@X@X@X@X@X@Xl.T.*.v v 1.@ C.I.v v e.`..X                ",
"                  6.3.3.3.3.3.3.3.~ #X          @ w.[           $X%X:.:.:.:.:.:.:.:.:.Y.P j.r ^.&X  V.w r r r _.                ",
"                  &Xh h h h h h h *X7.            =XOX          -X;X:X:X:X:X:X:X:X:X:X+ } H ; F P.  & H ; ; ; >X                ",
"                                                                                                                                ",
"                                                                                                                                ",
"                                                                                                                                ",
"                                                                                                                                ",
"                                                                                                                                ",
"                                                                                                                                ",
"                                                                                                                                ",
"                                                                                                                                ",
"                                                                                                                                ",
"                                                                                                                                ",
"                                                                                                                                ",
"                                                                                                                                ",
"                                                                                                                                ",
"                                                                                                                                ",
"                                                                                                                                ",
"                                                                                                                                ",
"                                                                                                                                ",
"                                                                                                                                "
};
