/* XPM */
static char *_6211ef0e5c648b1af4a6b633a275756OZO88iQogshUDSkj[] = {
/* columns rows colors chars-per-pixel */
"64 64 116 2 ",
"   c #000000",
".  c #060708",
"X  c #0A0B0C",
"o  c #0D0F10",
"O  c #0F1012",
"+  c #121315",
"@  c #151719",
"#  c #16181B",
"$  c #191B1E",
"%  c #1C1E22",
"&  c #1E2125",
"*  c #202327",
"=  c #222529",
"-  c #26292E",
";  c #272B30",
":  c #2A2D33",
">  c #2D3136",
",  c #2F3239",
"<  c #31353C",
"1  c #34383F",
"2  c #363B42",
"3  c #393E46",
"4  c #3B4047",
"5  c #3D434B",
"6  c #41464F",
"7  c #424750",
"8  c #454B54",
"9  c #4C4D56",
"0  c #504E57",
"q  c #534F58",
"w  c #575059",
"e  c #5B515B",
"r  c #63535D",
"t  c #68545F",
"y  c #6F5661",
"u  c #735762",
"i  c #775863",
"p  c #7C5965",
"a  c #7D5E69",
"s  c #835B67",
"d  c #855C68",
"f  c #8B5D69",
"g  c #955F6C",
"h  c #96606C",
"j  c #9B616E",
"k  c #906772",
"l  c #A46371",
"z  c #AC6573",
"x  c #A16D79",
"c  c #B46776",
"v  c #B66876",
"b  c #BA6977",
"n  c #B06C79",
"m  c #BD6A78",
"M  c #AD737F",
"N  c #C46C7A",
"B  c #CB6D7C",
"V  c #D26F7E",
"C  c #D5707F",
"Z  c #A77681",
"A  c #CF7584",
"S  c #D77080",
"D  c #DB7181",
"F  c #E37484",
"G  c #ED7686",
"H  c #F07687",
"J  c #F27788",
"K  c #F27B8C",
"L  c #CC828E",
"P  c #D78B97",
"I  c #D68C98",
"U  c #C6959F",
"Y  c #F48594",
"T  c #F48C9A",
"R  c #D696A1",
"E  c #DB9CA7",
"W  c #DF9FA9",
"Q  c #F595A3",
"!  c #F69FAB",
"~  c #D4A4AD",
"^  c #DBABB3",
"/  c #EDA9B3",
"(  c #E9AFB8",
")  c #F7A9B3",
"_  c #EAB1BA",
"`  c #F8B4BE",
"'  c #F8BBC3",
"]  c #F2C4CB",
"[  c #FAC7CE",
"{  c #F2C9CF",
"}  c #FACAD1",
"|  c #FBD1D7",
" . c #FBD3D9",
".. c #FBD5DA",
"X. c #F8D7DC",
"o. c #FAD8DD",
"O. c #FCDADF",
"+. c #FBE0E4",
"@. c #FCE2E6",
"#. c #FCE4E7",
"$. c #FDE5E8",
"%. c #FDEBED",
"&. c #FDECEE",
"*. c #FEEFF2",
"=. c #FEF1F2",
"-. c #FEF2F4",
";. c #FEF3F4",
":. c #FEF5F6",
">. c #FEF8F9",
",. c #FEF9FA",
"<. c #FFFAFB",
"1. c #FFFCFC",
"2. c #FFFDFE",
"3. c #FFFEFE",
"4. c #FFFEFF",
"5. c white",
/* pixels */
"                                                                                                                                ",
"                                                                                                                                ",
"                                                                                                                                ",
"                                                                                                                                ",
"                                                                                                                                ",
"                                                                                                                                ",
"                                                                                                                                ",
"                                                                                                                                ",
"                                                                                                                                ",
"                                                                                                                                ",
"                            . % : 2 5 5 5 4 , & @                         . @ - < 3 5 4 3 2 ; @ .                               ",
"                        @ , 4 7 8 8 8 8 8 8 8 8 6 2 *                 . = 3 6 8 8 8 8 8 8 8 8 7 3 ; o                           ",
"                    # 2 8 8 8 8 8 8 8 8 8 8 8 8 8 8 8 5 = X       o : 6 8 8 8 8 8 8 8 8 8 8 8 8 8 8 7 < o                       ",
"                X = 5 8 8 8 8 8 9 w e r r e 9 9 8 8 8 8 7 2 @ . % 3 8 8 8 8 8 9 0 e r r e 0 9 8 8 8 8 8 3 %                     ",
"              o , 8 8 8 8 8 0 s Z U ~ ^ R N z f r 8 8 8 8 8 5 , 8 8 8 8 8 9 u g v B S V B b j u 9 8 8 8 8 8 * .                 ",
"            . 5 8 8 8 8 r M / &.2.2.2.2.2.) J J J N y 9 8 8 8 8 8 8 8 9 p D H J J J J J J J J J D s w 8 8 8 8 , .               ",
"          . , 8 8 8 8 u W +.2.2.2.2.2.2.2.} J J J J F f 9 8 8 8 8 8 w z G J J J J J J J J J J J J H b r 8 8 8 7 ;               ",
"          : 8 8 8 9 x ] 2.2.2.2.2.2.2.2.;.! J J J J J H v r 8 8 9 u S J J J J J J J J J J J J J J J J F i 8 8 8 7 $             ",
"        + 6 8 8 9 k { 2.2.2.2.,.$.} ' ` ! K J J J J J J H N y e p S J J J J J J J J J J J J J J J J J J S u 8 8 8 2 X           ",
"      . > 8 8 8 a _ 2.2.2.2.;.` T J J J J J J J J J J J J J S B F J J J J J J J J J J J J J J J J J J J J S w 8 8 8 =           ",
"      # 6 8 8 u E ,.2.2.2.| T J J J J J J J J J J J J J J J J J J J J J J J J J J J J J J J J J J J J J J J z 0 8 8 6 .         ",
"      ; 8 8 8 M o.2.2.2...T J J J J J J J J J J J J J J J J J J J J J J J J J J J J J J J J J J J J J J J J F p 8 8 8 @         ",
"    O 3 8 8 0 _ ,.2.2.;.Y H J J J J J J J J J J J J J J J J J J J J J J J J J J J J J J J J J J J J J J J J J c 9 8 8 : .       ",
"    % 7 8 8 d o.2.2.2.` J H J J J J J J J J J J J J J J J J J J J J J J J J J J J J J J J J J J J J J J J J J C r 8 8 4 X       ",
"    - 8 8 8 n ;.2.2.;.T J J J J J J J J J J J J J J J J J J J J J J J J J J J J J J J J J J J J J J J J J J J F f 8 8 8 #       ",
"    < 8 8 9 L 2.2.2.$.K J J J J J J J J J J J J J J J J J J J J J J J J J J J J J J J J J J J J J J J J J J J G l 8 8 8 &       ",
"    < 8 8 w I 2.2.2.O.J J J J J J J J J J J J J J J J J J J J J J J J J J J J J J J J J J J J J J J J J J J J J z 8 8 8 *       ",
"    1 8 7 w P 2.2.2.} J J J J J J J J J J J J J J J J J J J J J J J J J J J J J J J J J J J J J J J J J J J J J z 8 8 8 =       ",
"    < 8 8 9 A  .&.$.Q J J J J J J J J J J J J J J J J J J J J J J J J J J J J J J J J J J J J J J J J J J J J G l 8 8 8 &       ",
"    > 8 8 9 m Y Q T J J J J J J J J J J J J J J J J J J J J J J J J J J J J J J J J J J J J J J J J J J J J J G h 8 8 8 %       ",
"    = 8 8 8 j J J J J J J J J J J J J J J J J J J J J J J J J J J J J J J J J J J J J J J J J J J J J J J J J D u 8 8 7 +       ",
"    # 5 8 8 y G J J J J J J J J J J J J J J J J J J J J J J J J J J J J J J J J J J J J J J J J J J J J J J J B e 8 8 2 .       ",
"    . 1 8 8 8 S J J J J J J J J J J J J J J J J J J J J J J J J J J J J J J J J J J J J J J J J J J J J J J J l 8 8 8 = .       ",
"      = 8 8 8 h G J J J J J J J J J J J J J J J J J J J J J J J J J J J J J J J J J J J J J J J J J J J J J D y 8 8 8 +         ",
"      o 4 8 8 w z J J J J J J J J J J J J J J J J J J J J J J J J J J J J J J J J J J J J J J J J J J J H K p 8 8 8 2           ",
"      . = 8 8 8 r N J J J J J J J J J J J J J J J J J J J J J J J J J J J J J J J J J J J J J J J J J J G z 9 8 8 7 @           ",
"        . 5 8 8 8 r F J J J J J J J J J J J J J J J J J J J J J J J J J J J J J J J J J J J J J J J J J N w 8 8 8 < .           ",
"          # 7 8 8 8 y V J J J J J J J J J J J J J J J J J J J J J J J J J J J J J J J J J J J J J J H N 9 8 8 8 5 X             ",
"          . - 8 8 8 8 w N J J J J J J J J J J J J J J J J J J J J J J J J J J J J J J J J J J J J H l q 8 8 8 5 %               ",
"              : 5 8 8 8 9 f S J J J J J J J J J J J J J J J J J J J J J J J J J J J J J J J J J B u 8 8 8 8 4 %                 ",
"              . & 4 8 8 8 9 i B G J J J J J J J J J J J J J J J J J J J J J J J J J J J J J G c t 8 8 8 8 3 @                   ",
"                  + 5 8 8 8 8 r N J J J J J J J J J J J J J J J J J J J J J J J J J J J J G v 0 8 8 8 8 2 o                     ",
"                    X 2 8 8 8 8 9 v F J J J J J J J J J J J J J J J J J J J J J J J J J F h 9 8 8 8 8 <                         ",
"                      . , 7 8 8 8 9 f F J J J J J J J J J J J J J J J J J J J J J J J D r 9 8 8 8 7 = .                         ",
"                          # 3 8 8 8 8 e N J J J J J J J J J J J J J J J J J J J J H l 0 8 8 8 8 1 O                             ",
"                            o < 8 8 8 8 e l F J J J J J J J J J J J J J J J J J D j 0 8 8 8 6 : X                               ",
"                              . : 8 8 8 8 8 l F J J J J J J J J J J J J J J J S s 8 8 8 8 6 ; .                                 ",
"                                  - 6 8 8 8 8 s V J J J J J J J J J J J J J B e 9 8 8 8 5 %                                     ",
"                                    @ 4 8 8 8 8 e N J J J J J J J J J J G z q 8 8 8 8 2 X                                       ",
"                                      . > 7 8 8 8 0 j F J J J J J J J S d 8 8 8 8 7 = .                                         ",
"                                        . = 5 8 8 8 9 f B J J J J H N u 9 8 8 8 4 & .                                           ",
"                                            & 4 8 8 8 9 u b J J F c w 8 8 8 8 2 @                                               ",
"                                              + 1 8 8 8 8 9 b F j 9 8 8 8 7 < .                                                 ",
"                                                . : 8 8 8 8 9 r 8 8 8 8 8 = .                                                   ",
"                                                    % 5 8 8 8 8 8 8 8 3 @                                                       ",
"                                                      # 1 8 8 8 8 8 > +                                                         ",
"                                                        X : 8 8 6 - .                                                           ",
"                                                            % : +                                                               ",
"                                                                                                                                ",
"                                                                                                                                ",
"                                                                                                                                ",
"                                                                                                                                ",
"                                                                                                                                ",
"                                                                                                                                "
};
