/* XPM */
static char *_3c434bb7ed1481aecc87af6f79a1f5eb0RntQDqkKFupegu[] = {
/* columns rows colors chars-per-pixel */
"64 64 236 2 ",
"   c #050C00",
".  c #0C0D00",
"X  c #050600",
"o  c #0E1200",
"O  c #131500",
"+  c #1A1601",
"@  c #151A00",
"#  c #1C1C01",
"$  c #1E1D09",
"%  c #130F00",
"&  c #231E01",
"*  c #1D2100",
"=  c #232401",
"-  c #292603",
";  c #252A01",
":  c #2B2C03",
">  c #22240A",
",  c #26290A",
"<  c #2B2C0B",
"1  c #2B270A",
"2  c #312E04",
"3  c #322E0A",
"4  c #2D3202",
"5  c #2D310B",
"6  c #2D3602",
"7  c #323403",
"8  c #353A02",
"9  c #3A3C04",
"0  c #33340C",
"q  c #39350C",
"w  c #353A0B",
"e  c #3A3C0C",
"r  c #2C2C13",
"t  c #282B15",
"y  c #322F13",
"u  c #302F1A",
"i  c #2E3112",
"p  c #2E3018",
"a  c #343413",
"s  c #393512",
"d  c #363A13",
"f  c #3B3C14",
"g  c #34351A",
"h  c #3B361B",
"j  c #363A1A",
"k  c #3C3C1B",
"l  c #3B3C22",
"z  c #363822",
"x  c #413F0B",
"c  c #413E15",
"v  c #423E1A",
"b  c #413F22",
"n  c #374103",
"m  c #3B4303",
"M  c #3D420C",
"N  c #3D470A",
"B  c #3E4213",
"V  c #3D421A",
"C  c #3E4222",
"Z  c #414506",
"A  c #434A02",
"S  c #43440C",
"D  c #434A0C",
"F  c #4B4E0D",
"G  c #494909",
"H  c #4C530C",
"J  c #4A5309",
"K  c #535C0D",
"L  c #555A07",
"P  c #434414",
"I  c #454A14",
"U  c #4A4C14",
"Y  c #43441C",
"T  c #49471B",
"R  c #454A1B",
"E  c #4B4C1B",
"W  c #4A4716",
"Q  c #524E1B",
"!  c #564D16",
"~  c #4C5313",
"^  c #4D521C",
"/  c #4C5615",
"(  c #515514",
")  c #555C14",
"_  c #52541D",
"`  c #555B1C",
"'  c #5B5C1B",
"]  c #595914",
"[  c #5D6415",
"{  c #5C641C",
"}  c #59651A",
"|  c #5A620F",
" . c #636B1C",
".. c #616719",
"X. c #69721A",
"o. c #717A1D",
"O. c #434423",
"+. c #494623",
"@. c #454A23",
"#. c #4B4C24",
"$. c #43452A",
"%. c #464B2A",
"&. c #4B4C2B",
"*. c #4B4629",
"=. c #514F23",
"-. c #514E29",
";. c #4E5224",
":. c #4D522B",
">. c #525423",
",. c #545A24",
"<. c #5A5C24",
"1. c #52542B",
"2. c #565A2B",
"3. c #5B5D2B",
"4. c #5B5628",
"5. c #4C4D33",
"6. c #454832",
"7. c #4E5233",
"8. c #535533",
"9. c #565A34",
"0. c #5B5C33",
"q. c #53553B",
"w. c #5B5D3C",
"e. c #575A37",
"r. c #625A23",
"t. c #635E36",
"y. c #5C6224",
"u. c #57612A",
"i. c #5C632B",
"p. c #5C6826",
"a. c #5D6233",
"s. c #5E623B",
"d. c #5F683B",
"f. c #616523",
"g. c #646C23",
"h. c #62642B",
"j. c #646B2C",
"k. c #6B6C2D",
"l. c #6A6C26",
"z. c #6C742C",
"x. c #6A7526",
"c. c #737B25",
"v. c #757C2B",
"b. c #70762A",
"n. c #626533",
"m. c #646B34",
"M. c #6A6D34",
"N. c #62643C",
"B. c #646A3B",
"V. c #6A6C3C",
"C. c #69673C",
"Z. c #726C3C",
"A. c #6C7334",
"S. c #6E7933",
"D. c #6C733B",
"F. c #687637",
"G. c #747C34",
"H. c #73733C",
"J. c #737B3B",
"K. c #737736",
"L. c #5A5D44",
"P. c #575B44",
"I. c #5D6342",
"U. c #5E644A",
"Y. c #5F6450",
"T. c #646542",
"R. c #646A43",
"E. c #6B6D43",
"W. c #6A6C4A",
"Q. c #63684C",
"!. c #6D7343",
"~. c #6C724C",
"^. c #6F7D48",
"/. c #737643",
"(. c #757B44",
"). c #7A7D43",
"_. c #747C49",
"`. c #7B7E4A",
"'. c #74754B",
"]. c #686C52",
"[. c #6D7455",
"{. c #737A54",
"}. c #777958",
"|. c #7A832B",
" X c #7C8334",
".X c #7A833D",
"XX c #798538",
"oX c #758143",
"OX c #7B8344",
"+X c #7E8A45",
"@X c #7C834A",
"#X c #7D884A",
"$X c #7D8452",
"%X c #7C855B",
"&X c #828B3C",
"*X c #828736",
"=X c #8C963D",
"-X c #879338",
";X c #899334",
":X c #838D43",
">X c #84854A",
",X c #838B4D",
"<X c #878B49",
"1X c #849142",
"2X c #8B9344",
"3X c #86924C",
"4X c #8B934C",
"5X c #8E9B4C",
"6X c #8E9B44",
"7X c #929A4B",
"8X c #838B53",
"9X c #878C57",
"0X c #918F59",
"qX c #8C9453",
"wX c #8A965A",
"eX c #959B59",
"rX c #9AA44C",
"tX c #9EA94D",
"yX c #94A253",
"uX c #99A454",
"iX c #9BA45C",
"pX c #9CA959",
"aX c #A5AB5E",
"sX c #A1AD49",
"dX c #8E9B63",
"fX c #979C63",
"gX c #838A60",
"hX c #A09E63",
"jX c #9AA566",
"kX c #9DA872",
"lX c #A1A964",
"zX c #A9B566",
"xX c #A8B374",
"cX c #B1B779",
"vX c #B7C47D",
"bX c #BDC68D",
/* pixels */
"R B 4Xx.N A.i.a.F.{.[.V @.: = ; l.g.7 F.<XK zXtXo.X.K A <.3.V 0 < 1 y + # 4 { K 3.* I p.~ ,.;.M j   * * V n } } | J N ` 6 V N N ",
"Y d @XF.,.u.@ V @.%.Q.[.%.;.q 2.' 9 J.>XoXiX3X} J x.6X .P &.a d < < a 0 q P f.y.W % ; u.oXJ.F.n B V 5 , 5 ; XX+X|.XXp.n n B N oX",
"7.:.V C C s.].* V %.t C &.f 3.H.D U V.oXE ,.u.2.8 ).qXl.3.v # k a 1 > f Y q 2 E < & o ;.#XyXF.* n J.:.M , @ n p.N / +XyX` * M , ",
"p j p i C P.P.p * C V , ;.2.^ : D 9XB.w V d 5 5 @ >.).; - O . < = , , < w : 2 s < O * @.dX%XoXp.S.3Xm.* d , * R C u.N pX#Xu.V V ",
"> $ l $.g # > z j d 4 M D ' 4 (.qXS.<.= Y *.%.= X = q 7 & = : e # = s 7 & e q 3 a + a 5 6 F.#X+X} +X+X* * * w 5 * ; } XX+XkXd.C ",
"* @ g r $ + > $.&.f R i.XX.XP a.fX(.B Y &.[.}.g & w.t._ W G F k.^ w M ; U @XW O ; a W @   u.wXXXj.} XXF.d ; V ; o XX#XyXzXyXd o ",
"p < # + O $ > $.&.< ; ,X,XF.1.%.@.d O.5.*.8.+.a & s n.>X2X|.J  .H [ X.| _ ~ j.F.j.~ } j.6 4 ^ D XXyX5XXX6 u.oXD 6 / } / kXoXo ; ",
"k k * a k $.z r r O.@.a.R ; #.W.O.< h O = 1 3 3 & Y Q U aX..L X...v.*X6X/   z.yX#X/ G.p.M 4 @ u.j.zXyXXX6 #XjX8XXXXXF.n u.9., C ",
"k : x T *.e.r + > O 8.q.a < f 9.:.< < # s >.m.2 @.T.k @ !.N { g.8  XtX=XZ ; 8 jX!.6 i.D * B : I p./ K b.} F.kXi.F.pXp.N ; i j V ",
"w W h.k.r.3 1 & & > > l # a 1.#.Y Y l - = #.OX8 R n.q.# ; ; n } 8 b.2XK / U 6 p.V , ; U ; OXD.* 6 N XX&XJ n 5 @ ; +X/ ,.5 @ j * ",
"7 S 4X .- q b r y b 1 1 a 0 *.= B w.V C < d a.4 m ).a.V #.R D b.|. XA ~ ` U U 7 # o = A.{ >Xi.f 5 n p.3XL H = # ; / n a.O.1 > + ",
"f _ g.m f.V.= + s < & f s 3 s < V ;.;.N.a , 1.w y.cXi.e 2.D * :X7X[ 4 I 8 ~ U B # O ; ,X<X; @ @.* ;.n H  X} ; > d.m.V C i r z $ ",
"6 m.|.XXy.W e >.f = < s.1.< < 5 M n w w V j %.a.w ;.P D.F.S ; OXXXm m e M M 2.;.; # 4 F.2.4 0 - 6 #XXX|.;Xc.>.V ^ m.I.V o r $.< ",
"o _.iXG.* B h.(.m.R N.N.N.e.e.f N F.^.^ V a.I.~.@.* w $XD.h.i.U >.9 : I ^ n ,.~ m.R / 6 @ 0.N.d ; F.zXyX6X} ;.@.6 ;.V , > o a < ",
"; V V B 4 9.`.$X>X^ R R.q.s.w.V N #XwXwXV p ~.~.:.; # 9.2.i.E 9 P E i.4  .|.:X( ` ^ } ~ ; M }.< o 6 F.S.F.$X* p , ; q B Y ; = = ",
"Y = i a.:.d W.dXM.D.a.1.5 j @ @ n #XdXoX*   j d.s.0 1 0 ;.1.;.0 0 : y.n |.pX1X) y.D 4 S.,Xh.s = 5 ;.u.6   V < * t C &.1._ 9 8 <.",
"Z 8 E : w w 1.R.>.>.V j 5 O . k V u.,.R , o 5 @.@.V 7., R C.E.a.V B |.XX6X-Xx.{ J.6 @ fXjXB t n / F.;.B @ r a g 5.T.e.d E Z } l.",
"M.f.M.M.(.P R < = : Y e.k , # > a :.V < r # * j %.7.U.O.Y f ;.'.s.V.J |.x.n m { ~ * w `.N * 5 6 m j.; @ $.b l # i T.a 7 <.W A.&X",
"M.` z.jXiX_ 0 k 3 Y s.T.V Y Y 0 O &.N.3 a < @ = 7.~.L.z - @ @.N.d _ X.X.o.m D ^ * * ; 4 6 ~ ; V 9.* @ @ 5.P.u & # &.R 7 @.:.a.D.",
"S 8 8 J.oX4 : = a t.N.@.f #.1.Y , C O.3 < d d a i I.7.* i ; f f V I |.;X=Xm : >.^ / / z.j._.C o @.5 p p $ t t L.k >.V.4 C I.B.:.",
"q : ; w / G.v.j.;.1.V B Y Y a y a & 0 < q c c Y : < < = 4 0 w V s.M g.rXtXK 8 y.H XX|.} p.d.* N ;.^.I.j i * $ C , V R W 5 , #.;.",
"&.< +.s ,.xXzXG.9 4 8 M Y ; O , - # +.q P 7 2 P ^ ^ : E m.U 4 o 7 w [ x.2Xz.` <.{ XXuXx.* 6 / u.#X%X~.j > t O . O Y ;.#.j k 8.N.",
"3 - y - - `.(._ <.G K b.h.: = a a W 4.f P S E = h.i.3.dXqX|.p.n m D z./ D.P ^ ^ S.n u.w o ;.oXN u.^.7.7., # $ $ = Y 1.1.e.&.k i ",
"O.v k h a 7 P y.K. X;X;XM = = < R R : w #.>./.>.U F m } pXx.-X-X2Xg.y.y.(.;.w 6 n m ; * @ #X%X6 @ :.].I.6.g > r O.0 f 1.V 5 C k ",
"&.O.g a +.P k.b.G.zXsX|.8 = = a Y T 1.E n.#.1.M.~ G H 8 [ } 1XzXqXD x.G.4 m P I |.XXXXu./ oX%X; p z P.Q.6.$.g 1 ;.4 s Y < a 7.e.",
"< = . i #.e ( eXG g.c. .7 < O.Y R <._ 7 _ e X Y J.g.[ [  .m ) kXn 8 { &Xz.,XP 8 +X+X+X|.|.N F.u.> z l z % t b - _.(.v 0 8.O.j 9.",
"9 7 = 7 W E _ Q 7 w 9 2 q 0 Y : q r.l.x.b.) >.2.A.:XX.o.=XK 8 E = 4 m eXzXiX,.; oXjXXXp.oXp.u.%Xp z Y.Y.z O y y 9X(.:.@.+.&.1 < ",
"S A.j.G.).<.-.2 a 1.< s s q s w f G *X7X*Xb.D <.^ m c.=X6XA e W k R 7 jXuXx.I # 6 N oX#X#X|.@ C C O 5.].P.+ v c 1.; V 0.T.V - V ",
"# m v.5X4X;.q 2 a +.s c & x f q P e 8 ..*X*X7 2 M 7 K.eXK Z Q P @.w.2.n.z.G : / ;.N ^.kXdXR * z C p O z 5.r y & x i.c 1.8.- : e ",
"( f.&XiX8 : P E < : y 3 v v : 8 P 7 F G ]  X9 c Y W 8 h.~ y.` I s.N.~.2.#XD.8XkXdXoX,.d.wXV a P.Y.Y.6.t y s q =.8 j.1.a O.= _ f.",
"6X7XG.I * f >.<.: = q x v >.W x '  .X.*XL X.7 7 1.q x <.,.E E _ >.@.d.s.V !.kXd.{.* 6 ; u.u.k 5.].L.6.l r = ; M.K.y.e f 3 7 v.*X",
"rX2Xe ; a e h.).).W v 2 2 ! ).] g. .X.|.c.J ' e f = v +.0 W W >.0 e a.2.f , 6 ; ; > w d 6 a.$.  t %.O.k # # _ { oXA.e 8.k e ) =X",
"cX,.# < k W A.lXn.: c T r.A.f.F G.[ K c.X.] ' h.t.2 0 =.c >.x 4.3.^ H.J.h.9 9 P : < < s , @.1 g O - h.U - @ 2.J.I R Y T.&.= = D.",
"n.4 0 = f e 8 h.E e t.>.r.l.! ( 4XeXb.)  .g.Z Z Q : Y E.=.W f t.B.M.4XG.D G.4XM 5 f f -.= O & h - W >X(.#.* n _.n E 1.; < P W e ",
"f M ' l.: = 2 7 W T Y -.^ <...G ).m.f.g.' ~ <.u.Q E 3.t.W 0.4.=.a.C.3.9 ( &XuXF.W Y 8.8.a d 2 D ] ..i.a.%.< # , ;.D.D.4 # h.h.<.",
"Y n.&X&XU f @.#.1.2.: V 7 _ K.z._ U ^ y.j.4 w (.n.E.n.1.4.-.W T #.V.P 8 H  .&XjXn.t.T.-.3 f <.K.v.G._ V k 1 . 3 8 j.h.M I ,.A.k.",
": E k.4Xm.;.@.@.W.'.#.>.e E @X,.W B.B.OX,XM.m.D.n.n.1.T.*.q t.4.e Q H  .} ( 8 9Xf w.W.$.s v 0 <.2X2XM.c a y - s w n.n.w 0.f f P ",
"f Y W ` j.D : @.#.B 2.Y ;.>.E 9 ; 4 u.9X#XJ.(.a.!.W.< w.4.3 k.! P 7 H v.7X<X: 0.#.s $.h c - % q lXy.T - h +.+.1 w B.;.P @.f R e ",
"8.s.#.h.2Xc.8 Z # M 1.d T e P W 9 : ^ @XoXoXB a.gX'.8.s -.c ! ' ` Z ] eX4X4X_ t.0.b . % s &.s 0 W : - - q c v 3 2 0 9.Y - a e.a.",
"e.E.= m.zX6X&X4X.X_ W #.S m.m.9 3.<.<.e a.oXN ,.gXR Y #.-.x x k.( :X( ..G G Q 4.4.+.O = a &.d 0 T +.- 3 v v v v v = V C < @.1.w ",
"@.0 O 3.G.G.jXaXuXg.,.B m 4XM.m A.S : S 3.!.oXF.J.u.p.;.=.e x k.` 4XK.r.k.Z.=.T.W.- 3 k 5 j Y R = W 8XM @.t.-.y 1 g - d f ;.E ^ ",
"a < <.m.8 M XXvX:X( n._.3X+XS 3.h.S P <.>.i.OX(.z.J.OX@X1.Q ).M.h.x r.).0XfXC.s 4.c 2.+.5 e.1.1.7 ;.OX8 T +.1 < r q.L.&.= #./.>.",
"# f H.(.e j V %XP d w.2.xXF.; q Q Q <.9 I U h.A.(.n OXbX0.= ).hXH.q x 0XfX>X8 4 G.<.n.O.o q.s.@.0.@Xi.= : Y 1.T f $.q.3 & '.N.= ",
"k k ,.R 5 C @.;.0 d < e /.M e c e P Q <.>.P I >.E n I 8X2.4 H.eXS T c C.eXA.I eXzX:X>.R @ 5.R.C ; ; 1.1.1.`.n.: 0 k > + r R.< < ",
"5.q c P V @.8.5.= Y Y f f x Q >.Q <.f.Z.t.,.<.0.#.#.+.f ;.2.3.<.r.=.W #.E ` A.J pX6Xp.N C ].%X:., i j }.:.N._.; < k r > k k Y @.",
"k @.w.C.w w w ; : ^ 7 P f #.2.4.E M.n.U G t.Z.c = e ;.B.;.h.k.( _ >.Y 1.>.i.G.} -XXXyXF.* i 7.:.= a > w.k , #.4.k s w.a # 0 0 f ",
"f Y N.0.8 m Z ( 8 8 ) &X2.: 0.3.<./.3.I <.<.W 8 7 _ T a.>.<.p.[ Z I e 2.n.m.vXyXyXzXjX#X4 5 V %.a 1.V -.> 5 O.1.1.0 &.f : @.4 V ",
"4.Y @.0 y.z.2Xb.b.b.eXiXc X h N.>.r.W E _ x P C.>X<.P 1.i.8 p.1XH S ^ R Y 7 qX) x.xXdXV :.V 2.I.N.e < a V q.a @ 7 < 0 R 1.a.:.d ",
"N.#.T : y.eXJ.' J.J.m 8X;.: j ~.(.2.d 1.a.#.#.n.`.I i.e M u.3X2Xg.H U D >.8 Z A ,.d.%XU.5 @.d.9.n.w * , j ~.@.B 6 / R k Y 3 v -.",
"N.f V.H.` ) ^ D.j.,.w &.T.@.< ~.{.;.d B a.<.0 : 7 W `.1.B.A.6X5X{ <.{ r.>.E k.! 6 d I.[.%.:.@.@.B R 5 @.%.%.d.#X#X#X;.a k = y t.",
"8 P C.J.) m i.f f T k a > j i I.d.* M 9 F z.9 e W 0.N.C.n.^ +XA.^ 1.r.W 2 _ k.r.6 w @.%.; ;.s.[.7.:.f 1.wXm.d.^.jXF.:.%.s < 3 1.",
"k.M.r.k.l.b.i.= O.r # = * j V @.;.;.>.y.z.eX3.4 ,.E e R V.I I 3.= P t.t.x G G r.f.B = 4 3.^ [.[.7.j q ;.#X#XwX%X2.5 C C b -.v =.",
"4X_ 7 h.&X-XJ.B V , 0 : < j @.5 P ;.N ,XjXoXI <.i.8 =.#.=.=.D.B #.=.Z.).c r.] *X( 9 c e g._ :.%.$ 1 - & = Y 9.R.a , s a e.8.+ *.",
"<X2 + = aX2Xf.>.B V 0.:.j :.#.a w R P D.A.~ >.n.j.M c 8 0.>.a.e >.x =.r.! r.] ] ] y.#.P ' j.R V < O h c = d # f $.- a O.v +.% h ",
"2 - 1 = M.r.W 7 f Y ;.1.a q.&.< f T f 7 D h.P e D <.f.7 Y W ,.h.Z.! Z.Z.! k.' l.b.K.,.+.@XF.M :.W.= k h h c = @.V : O.%.l b < y ",
"r p $.3 2 n.U - e P >.@.# O.0.>.s 3 f f M 3.4.N.h.wXA.7 E E p.#Xr.x ).k.G r.Z k.eX8 7 e M n @ 6 ;.V + a q e 7 W x 7 f j = %.q.a ",
"].i y v v P 4 _ _ S 1.a : #.E.E.h Y C.t.T '.%X%XW.!.`.m W <.8 k...F G Z.4.x 8 _ m.O 9 _ # M _ I V $.a f Y 4 Z G.X.:XM.#.%.C O.I.",
"7.< $.O.a : I D.K.H.0 # w 0.4.1.v s h 0 +.9.~.{.:.f W >.M V.(.8 G..XU _ S _ Q c = P K.f.* ^ S.2.k j 5 &.1.= 8 :X*XrX(.P B.:.%.@.",
"R w a , a a w wXeXm.* < c f 3 1 y - a 8.d , s.{.w 4 q :.R jXD.I _ y.j.A.S S c 2 =.>.A.l.n y.(.e = , 8.k C.e # j.pXiXE 0 O.&.T.9.",
"dXR &.$.j O.V ,.,.M f 1.+.3 y *.h a a 8.a # < R.n.2.6 #.n I E n.t.7 J.#XA.4.t.2 n.>.e ` ( y.I 0 z * b = E /.#.: wXA.< a a g 8.V ",
"a.V w.5.g C 0 f #.1.O.O.0 &.t.v a 1 - 0 c 5 @ ;.n.B D #X^ 2.'.@.d f I a.n.1.3.3 c +.- < Y :.1 * l u g a @.8.T., @ = < q a y Y c ",
"d 1.v < s a R a.3.@.Y < + 1.T.Q.&.k 3 =.>.I ,.^ u.i.Z y.u.P V < * d R ^ ^ >.7 v t.= # h # @ j @ O $.L.8.V * 0 - @ B.#.0 # O.Y 0 ",
"n.c 7 q 3 c U A.J.R ; f O.e.~.~.w.N.V.h.Z ' v..Xi.n.a.e Z E P k 0 f ;._.u.#X<.S =.: : a , @ M u.B j &.@.B * ; 4 = 2.2.. s h s c ",
"e : Z.r.c Z ( 5X,XR V V k j %.%.&.>.` { 4X .o.7XwXI 1.U <.` q 7 e.1.e N S D H.i.e w d f k 0 ~ 9X!.; 5 R R ;.I ^ B 4 B q < +.+.f "
};
