/* XPM */
static char *_599039626885[] = {
/* columns rows colors chars-per-pixel */
"62 62 245 2 ",
"   c #00750A",
".  c #007914",
"X  c #017A1C",
"o  c #007712",
"O  c #007928",
"+  c #007A37",
"@  c #001258",
"#  c #001863",
"$  c #002767",
"%  c #013564",
"&  c #18326A",
"*  c #00257A",
"=  c #01327A",
"-  c #003A79",
";  c #1C3973",
":  c #1A2D63",
">  c #3E5E5D",
",  c #02775B",
"<  c #007645",
"1  c #014A78",
"2  c #015A79",
"3  c #005B6D",
"4  c #244877",
"5  c #304B7A",
"6  c #01697B",
"7  c #167B73",
"8  c #247C78",
"9  c #286A72",
"0  c #5E585B",
"q  c #53735B",
"w  c #547F63",
"e  c #777877",
"r  c #71676D",
"t  c #60575A",
"y  c #807B7F",
"u  c #018C14",
"i  c #018D1C",
"p  c #01921D",
"a  c #029A1C",
"s  c #088B11",
"d  c #00A61E",
"f  c #018D2C",
"g  c #028E25",
"h  c #009323",
"j  c #019B24",
"k  c #01932B",
"l  c #019C2C",
"z  c #089021",
"x  c #008E33",
"c  c #018E3A",
"v  c #018436",
"b  c #019333",
"n  c #01923C",
"m  c #019C36",
"M  c #1A9930",
"N  c #01A42B",
"B  c #01AB2E",
"V  c #01A625",
"C  c #01A434",
"Z  c #01AC33",
"A  c #01AC3A",
"S  c #01A33A",
"D  c #02B23D",
"F  c #01B83C",
"G  c #01B035",
"H  c #01B32B",
"J  c #328F3F",
"K  c #01CB39",
"L  c #028E4A",
"P  c #01864A",
"I  c #019B44",
"U  c #019549",
"Y  c #048A54",
"T  c #019B52",
"R  c #01945B",
"E  c #039856",
"W  c #1B9A4D",
"Q  c #2D9156",
"!  c #01AC42",
"~  c #01A54D",
"^  c #00AA48",
"/  c #02B648",
"(  c #03A854",
")  c #02B956",
"_  c #15AA54",
"`  c #2FA64F",
"'  c #038B68",
"]  c #018A76",
"[  c #0F966E",
"{  c #00AB68",
"}  c #02B867",
"|  c #02A873",
" . c #0BB776",
".. c #39A964",
"X. c #24A976",
"o. c #2D937D",
"O. c #5C8E70",
"+. c #6F8970",
"@. c #4BAF74",
"#. c #649662",
"$. c #00C14C",
"%. c #00C460",
"&. c #57C56C",
"*. c #879C3F",
"=. c #93A937",
"-. c #ADA72D",
";. c #D1B919",
":. c #C7B926",
">. c #FDCD02",
",. c #FAC507",
"<. c #FDD402",
"1. c #FFDA00",
"2. c #F7D104",
"3. c #E8C413",
"4. c #FFE200",
"5. c #D4C31E",
"6. c #808648",
"7. c #00268B",
"8. c #012B8C",
"9. c #002E85",
"0. c #023484",
"q. c #01338B",
"w. c #023A8B",
"e. c #013D86",
"r. c #012C94",
"t. c #002E98",
"y. c #013294",
"u. c #013C94",
"i. c #01329B",
"p. c #013C9B",
"a. c #013BA3",
"s. c #013DAA",
"d. c #0137A4",
"f. c #02438D",
"g. c #014885",
"h. c #075689",
"j. c #024393",
"k. c #024799",
"l. c #045897",
"z. c #016688",
"x. c #096D8C",
"c. c #2E7983",
"v. c #277F98",
"b. c #2F6895",
"n. c #0143A4",
"m. c #014AAA",
"M. c #0146A6",
"N. c #0556A8",
"B. c #024AB6",
"V. c #025BB4",
"C. c #0257B8",
"Z. c #0267AA",
"A. c #0276AA",
"S. c #0266B8",
"D. c #0175B2",
"F. c #1F7DBD",
"G. c #2860A0",
"H. c #42758B",
"J. c #537594",
"K. c #717C8E",
"L. c #4A75A7",
"P. c #517AA6",
"I. c #0156C0",
"U. c #0165C6",
"Y. c #0379D5",
"T. c #0475C8",
"R. c #857F83",
"E. c #13958E",
"W. c #3B9594",
"Q. c #328E8F",
"!. c #04B285",
"~. c #3CA688",
"^. c #3AA19D",
"/. c #0485AF",
"(. c #2E8AB5",
"). c #27A1B5",
"_. c #4C8993",
"`. c #47AD8A",
"'. c #6DBA98",
"]. c #71AA8E",
"[. c #5693A6",
"{. c #4F8BA2",
"}. c #6D93AB",
"|. c #55B5A7",
" X c #4FAAAB",
".X c #61ADA3",
"XX c #71B6AD",
"oX c #7C868F",
"OX c #4FC990",
"+X c #6AD08F",
"@X c #69C4A9",
"#X c #7BC5AB",
"$X c #79DABB",
"%X c #4CC8AE",
"&X c #0690CA",
"*X c #3F98C2",
"=X c #729ECB",
"-X c #76B0C9",
";X c #57B9C4",
":X c #6EC6C8",
">X c #878887",
",X c #999797",
"<X c #909291",
"1X c #A49C9C",
"2X c #85B3AE",
"3X c #BAB9B8",
"4X c #A9A6A6",
"5X c #859DA9",
"6X c #C0B5B9",
"7X c #8AC7AD",
"8X c #B0D9B6",
"9X c #95D19E",
"0X c #C4C3BE",
"qX c #8AB4C5",
"wX c #89B3D0",
"eX c #97C9C9",
"rX c #8CCDCF",
"tX c #A7D6CC",
"yX c #ACD5D4",
"uX c #B2CCCF",
"iX c #AFE3C7",
"pX c #B0D9E4",
"aX c #9BE0CE",
"sX c #C7D4C5",
"dX c #C6D4CB",
"fX c #C6D8C9",
"gX c #C8D6C7",
"hX c #C6CBD3",
"jX c #CACBD4",
"kX c #C7C7D1",
"lX c #CDD4D6",
"zX c #CAD7D6",
"xX c #D7D9D6",
"cX c #CBCBD0",
"vX c #E3DEDA",
"bX c #C6E1D8",
"nX c #CADCE7",
"mX c #CAE4E5",
"MX c #D6E9E6",
"NX c #D8F1EB",
"BX c #E9E9E8",
"VX c #E9F4F4",
"CX c #FFFFFF",
"ZX c #F4F6F4",
"AX c #E8F0F0",
/* pixels */
"CXCXCXCXCXCXCXCXCXCXCXCXCXCXCXCXCXCXCXCXCXCXCXCXCXCXCXCXCXCXCXCXCXCXCXCXCXCXCXCXCXCXCXCXCXCXCXCXCXCXCXCXCXCXCXCXCXCXCXCXCXCX",
"CXCXCXCXCXCXCXCXCXCXCXCXCXCXCXCXCXCXCXCXCXCXCXCXCXCXCXCXCXCXCXCXCXCXCXCXCXCXCXCXCXCXCXCXCXCXCXCXCXCXCXCXCXCXCXCXCXCXCXCXCXCX",
"CXCXCXCXCXCXCXCXCXCXCXCXCXCXCXCXCXCXCXCXCXCXCXCXCXCXCXCXCXCXCXCXCXCXCXCXCXCXCXCXCXCXCXCXCXCXCXCXCXCXCXCXCXCXCXCXCXCXCXCXCXCX",
"CXCXCXCXCXCXCXCXCXCXCXCXCXCXCXCXCXCXCXCXCXCXCXCXZXZXBX0X4X,X,X,X3XxXBXxXxXvXvXZXCXCXCXCXCXCXCXCXCXCXCXCXCXCXCXCXCXCXCXCXCXCX",
"CXCXCXCXCXCXCXCXCXCXCXCXCXCXCXCXCXCXCXCXCXAXjXuXqX}.J.5 & & & ; b.H.L.P.}.}.>XK.AXCXCXCXCXCXCXCXCXCXCXCXCXCXCXCXCXCXCXCXCXCX",
"CXCXCXCXCXCXCXCXCXCXCXCXCXCXCXCXCXCXCXCXCXZX4 = k.9.9.0.- 0.w.w.Z.A.n.N.n.N.* 4 ZXCXCXCXCXCXCXCXCXCXCXCXCXCXCXCXCXCXCXCXCXCX",
"CXCXCXCXCXCXCXCXCXCXCXCXCXCXCXCXCXCXCXCXCXmX0.n.U.B.u.f.f.j.j.j.N.&XZ.p.m.T.C.0.MXCXCXCXCXCXCXCXCXCXCXCXCXCXCXCXCXCXCXCXCXCX",
"CXCXCXCXCXCXCXCXCXCXCXCXCXCXCXCXCXCXCXCXCXK.* T.Y.B.w.q.u.u.p.p.y.Z.D.u.p.I.Y.q.}.ZXCXCXCXCXCXCXCXCXCXCXCXCXCXCXCXCXCXCXCXCX",
"CXCXCXCXCXCXCXCXCXCXCXCXCXCXCXCXCXCXCXCXBX: k.Y.U.n.8.7.8.y.i.i.r.7.q.q.y.S.&XN.& AXCXCXCXCXCXCXCXCXCXCXCXCXCXCXCXCXCXCXCXCX",
"CXCXCXCXCXCXCXCXCXCXCXCXCXCXCXCXCXCXCXCXkX@ S.Y.C.y.7.7.8.8.i.i.r.r.7.7.7.N.&XT.$ kXCXCXCXCXCXCXCXCXCXCXCXCXCXCXCXCXCXCXCXCX",
"CXCXCXCXCXCXCXCXCXCXCXCXCXCXCXCXCXCXZXCXkX@ S.T.B.r.r.r.r.i.d.d.d.i.r.7.7.p.C.C.= kXCXZXCXCXCXCXCXCXCXCXCXCXCXCXCXCXCXCXCXCX",
"CXCXCXCXCXCXCXCXCXCXCXCXCXCXCXCXCXCXCXCXkX@ S.U.M.r.q.8.r.i.a.s.d.t.r.7.7.i.s.B.* jXCXCXCXCXCXCXCXCXCXCXCXCXCXCXCXCXCXCXCXCX",
"CXCXCXCXCXCXCXCXCXCXCXCXCXCXCXCXCXCXCXCXkX# S.U.s.r.8.r.r.d.d.s.a.r.8.7.7.i.s.B.* kXCXCXCXCXCXCXCXCXCXCXCXCXCXCXCXCXCXCXCXCX",
"CXCXCXCXCXCXCXCXCXCXCXCXCXCXCXCXCXCXCXCXjX# I.U.a.8.8.8.i.i.s.s.a.i.r.8.7.i.s.B.* kXCXCXCXCXCXCXCXCXCXCXCXCXCXCXCXCXCXCXCXCX",
"CXCXCXCXCXCXCXCXCXCXCXCXCXCXCXCXCXCXZXCXcX# V.U.p.q.q.8.r.p.s.n.a.y.q.8.8.y.s.B.* jXCXZXCXCXCXCXCXCXCXCXCXCXCXCXCXCXCXCXCXCX",
"CXCXCXCXCXCXCXCXCXCXCXCXCXCXCXCXCXCXCXCXjX# V.C.p.8.q.q.y.a.n.M.n.i.q.q.8.y.s.B.9.jXCXCXCXCXCXCXCXCXCXCXCXCXCXCXCXCXCXCXCXCX",
"CXCXCXCXCXCXCXCXCXCXCXCXCXCXCXCXCXCXCXCXkX# V.V.u.0.0.q.u.n.M.m.k.p.q.q.0.u.m.C.= jXCXCXCXCXCXCXCXCXCXCXCXCXCXCXCXCXCXCXCXCX",
"CXCXCXCXCXCXCXCXCXCXCXCXCXCXCXCXCXCXCXCXkX$ V.V.u.q.0.q.u.k.M.N.M.p.w.w.0.u.m.C.0.jXCXCXCXCXCXCXCXCXCXCXCXCXCXCXCXCXCXCXCXCX",
"CXCXCXCXCXCXCXCXCXCXCXCXCXCXCXCXCXCXZXCXjX$ V.S.k.e.0.e.f.k.N.B.s.u.0.7.q.k.G.C.= kXCXCXCXCXCXCXCXCXCXCXCXCXCXCXCXCXCXCXCXCX",
"CXCXCXCXCXCXCXCXCXCXCXCXCXCXCXCXCXCXCXCXkX$ V.Z.k.e.f.e.f.k.N.#.:.3.;.#.> L.=XI.- kXCXCXCXCXCXCXCXCXCXCXCXCXCXCXCXCXCXCXCXCX",
"CXCXCXCXCXCXCXCXCXCXCXCXCXCXCXCXCXCXCXCXhX$ S.S.k.g.f.g.j.b.5.1.<.1.>.1.-.L.=XS.- hXCXCXCXCXCXCXCXCXCXCXCXCXCXCXCXCXCXCXCXCX",
"CXCXCXCXCXCXCXCXCXCXCXCXCXCXCXCXCXCXCXCXhX% Z.D.l.g.g.g.h.;.1.<.<.>.>.,.Q h.=XT.- jXCXCXCXCXCXCXCXCXCXCXCXCXCXCXCXCXCXCXCXCX",
"CXCXCXCXCXCXCXCXCXCXCXCXCXCXCXCXCXCXCXCXhX% A.D.h.g.g.f.#.1.2.<.>.>.>.=.^ h.(.-X1 lXCXCXCXCXCXCXCXCXCXCXCXCXCXCXCXCXCXCXCXCX",
"CXCXCXCXCXCXCXCXCXCXCXCXCXCXCXCXCXCXCXCXhX% A./.x.h.2 f.-.1.<.1.1.,.*.! W wXZ.*XH.jXCXCXCXCXCXCXCXCXCXCXCXCXCXCXCXCXCXCXCXCX",
"CXCXCXCXCXCXCXCXCXCXCXCXCXCXCXCXCXCXCXCXhXJ.).A.l.2 1 9 ;.3.3.;.=.` / B _.nX(./.1 cXCXCXCXCXCXCXCXCXCXCXCXCXCXCXCXCXCXCXCXCX",
"CXCXCXCXCXCXCXCXCXCXCXCXCXCXCXCXCXCXCXCXuX5XVXpX-X[.{.[.Q.E _ / / K G o.nXZXwXpXc.kXCXCXCXCXCXCXCXCXCXCXCXCXCXCXCXCXCXCXCXCX",
"CXCXCXCXCXCXCXCXCXCXCXCXCXCXCXCXCXCXCXCXlXc.).:XeXpXuXuX.Xx.[ ( R [ [.2XCXwX-XpXH.jXCXCXCXCXCXCXCXCXCXCXCXCXCXCXCXCXCXCXCXCX",
"CXCXCXCXCXCXCXCXCXCXCXCXCXCXCXCXCXCXCXCXzXJ./.). Xx.2 2 z.z.z.v.=XuXCXv.VXeXMXrX9 lXCXCXCXCXCXCXCXCXCXCXCXCXCXCXCXCXCXCXCXCX",
"CXCXCXCXCXCXCXCXCXCXCXCXCXCXCXCXCXCXCXCXlXc.;XVXCX[.3 6 6 XXXXnXnXnXMXv.ZXuXMX).c.lXCXCXCXCXCXCXCXCXCXCXCXCXCXCXCXCXCXCXCXCX",
"CXCXCXCXCXCXCXCXCXCXCXCXCXCXCXCXCXCXZXCXzX8 mX;XE.W.2XmX XeXCXrXE.ZXyXW.CXrXCXrXc.lXCXCXCXCXCXCXCXCXCXCXCXCXCXCXCXCXCXCXCXCX",
"CXCXCXCXCXCXCXCXCXCXCXCXCXCXCXCXCXCXCXCXlXc.NX:XE.CXyXpXAXuXCXE.Q.CX2X.XCX^.tX:X8 lXCXCXCXCXCXCXCXCXCXCXCXCXCXCXCXCXCXCXCXCX",
"CXCXCXCXCXCXCXCXCXCXCXCXCXCXCXCXCXCXCXCXlX[ mXZX XCX_.7XNXnXVX] |.CX|.W..X] ] !.8 xXCXCXCXCXCXCXCXCXCXCXCXCXCXCXCXCXCXCXCXCX",
"CXCXCXCXCXCXCXCXCXCXCXCXCXCXCXCXCXCXCXCXlX, %XCXyXVXo.MXeXNXMX] |.'.' , , E.|.rX2XxXCXCXCXCXCXCXCXCXCXCXCXCXCXCXCXCXCXCXCXCX",
"CXCXCXCXCXCXCXCXCXCXCXCXCXCXCXCXCXCXCXCXlX, !.NXMXMX'.bXW.ZX@X' ' ' `.XX8XtXaXaX].xXCXCXCXCXCXCXCXCXCXCXCXCXCXCXCXCXCXCXCXCX",
"CXCXCXCXCXCXCXCXCXCXCXCXCXCXCXCXCXCXCXCXzXY %XAXiXMXXX[ X.X.R ~.#X7X'.~.[ ' | | < cXCXCXCXCXCXCXCXCXCXCXCXCXCXCXCXCXCXCXCXCX",
"CXCXCXCXCXCXCXCXCXCXCXCXCXCXCXCXCXCXCXCX8X].CX@XiXfXP Y R ~.#X@X~.R P < Y R | !.< gXCXCXCXCXCXCXCXCXCXCXCXCXCXCXCXCXCXCXCXCX",
"CXCXCXCXCXCXCXCXCXCXCXCXCXCXCXCXCXCXZXCXuX].$X| NX'.+ ..7X`.[ T R R L Y L R {  .< dXCXZXCXCXCXCXCXCXCXCXCXCXCXCXCXCXCXCXCXCX",
"CXCXCXCXCXCXCXCXCXCXCXCXCXCXCXCXCXCXCXCXxXQ {  .@.L '.'.E L E E E L L L L T { } + dXCXCXCXCXCXCXCXCXCXCXCXCXCXCXCXCXCXCXCXCX",
"CXCXCXCXCXCXCXCXCXCXCXCXCXCXCXCXCXCXCXCXiXQ OX( _ 7X..v L T T T T U L L L U { } + dXCXCXCXCXCXCXCXCXCXCXCXCXCXCXCXCXCXCXCXCX",
"CXCXCXCXCXCXCXCXCXCXCXCXCXCXCXCXCXCXCXCXcXX OX+X7XW O c n U ( ( ~ U n L n I ( ) + dXCXCXCXCXCXCXCXCXCXCXCXCXCXCXCXCXCXCXCXCX",
"CXCXCXCXCXCXCXCXCXCXCXCXCXCXCXCXCXCXZXCXfXO ( +X` f c x n I ~ ( ~ I x c c I ( ) O dXCXCXCXCXCXCXCXCXCXCXCXCXCXCXCXCXCXCXCXCX",
"CXCXCXCXCXCXCXCXCXCXCXCXCXCXCXCXCXCXCXCXfXO / ^ m n f b n ^ ~ ^ ~ m n x x m / ) O dXCXZXCXCXCXCXCXCXCXCXCXCXCXCXCXCXCXCXCXCX",
"CXCXCXCXCXCXCXCXCXCXCXCXCXCXCXCXCXCXCXCXfXX ! ! m n f f b S ^ ^ ^ m k x f m ! / O gXCXCXCXCXCXCXCXCXCXCXCXCXCXCXCXCXCXCXCXCX",
"CXCXCXCXCXCXCXCXCXCXCXCXCXCXCXCXCXCXCXCXfXX ! A m k f f k S ! ! ! m k f f m D / X gXCXCXCXCXCXCXCXCXCXCXCXCXCXCXCXCXCXCXCXCX",
"CXCXCXCXCXCXCXCXCXCXCXCXCXCXCXCXCXCXCXCXfX. D S l h g g k C ! ! m m h g g l A / . sXCXCXCXCXCXCXCXCXCXCXCXCXCXCXCXCXCXCXCXCX",
"CXCXCXCXCXCXCXCXCXCXCXCXCXCXCXCXCXCXCXCXfXo A Z l g g h k C A A C l h g i l A / . sXCXCXCXCXCXCXCXCXCXCXCXCXCXCXCXCXCXCXCXCX",
"CXCXCXCXCXCXCXCXCXCXCXCXCXCXCXCXCXCXCXCXfXo G Z l p i i h N Z Z C j h g i j Z F . sXCXCXCXCXCXCXCXCXCXCXCXCXCXCXCXCXCXCXCXCX",
"CXCXCXCXCXCXCXCXCXCXCXCXCXCXCXCXCXCXCXCXgX  Z B j i i g h N Z Z N j h i i j Z F o sXCXCXCXCXCXCXCXCXCXCXCXCXCXCXCXCXCXCXCXCX",
"CXCXCXCXCXCXCXCXCXCXCXCXCXCXCXCXCXCXCXCXfX  Z V j p i p h N Z Z N j p i i j Z F o sXCXCXCXCXCXCXCXCXCXCXCXCXCXCXCXCXCXCXCXCX",
"CXCXCXCXCXCXCXCXCXCXCXCXCXCXCXCXCXCXCXCXsX  G N a u u i a j N Z N h p i u j Z F o sXCXCXCXCXCXCXCXCXCXCXCXCXCXCXCXCXCXCXCXCX",
"CXCXCXCXCXCXCXCXCXCXCXCXCXCXCXCXCXCXCXCXgX  H V d u u u a N V Z N j i u u j D / o sXCXCXCXCXCXCXCXCXCXCXCXCXCXCXCXCXCXCXCXCX",
"CXCXCXCXCXCXCXCXCXCXCXCXCXCXCXCXCXCXCXCXgX  H V d s s a p j B B N a i u u j F $.o sXCXCXCXCXCXCXCXCXCXCXCXCXCXCXCXCXCXCXCXCX",
"CXCXCXCXCXCXCXCXCXCXCXCXCXCXCXCXCXCXCXCXgX  d d s u s s a N Z B V j i u u a F ) . gXCXCXCXCXCXCXCXCXCXCXCXCXCXCXCXCXCXCXCXCX",
"CXCXCXCXCXCXCXCXCXCXCXCXCXCXCXCXCXCXCXCX8X#.&.&.` s s M p C Z A C j h u u j / ) O dXCXCXCXCXCXCXCXCXCXCXCXCXCXCXCXCXCXCXCXCX",
"CXCXCXCXCXCXCXCXCXCXCXCXCXCXCXCXCXCXCXCXfX..+XiX8X9X8X` h C ! ! A m h i u S %.%.g gXCXCXCXCXCXCXCXCXCXCXCXCXCXCXCXCXCXCXCXCX",
"CXCXCXCXCXCXCXCXCXCXCXCXCXCXCXCXCXCXCXCXCX*.` @...@.@.z j C ! A A l g i z ( X.Q +.CXCXCXCXCXCXCXCXCXCXCXCXCXCXCXCXCXCXCXCXCX",
"CXCXCXCXCXCXCXCXCXCXCXCXCXCXCXCXCXCXCXCXCXCX3XR.<X+.+.+.+.O.O.O.w q q e e ,X0 1XCXCXCXCXCXCXCXCXCXCXCXCXCXCXCXCXCXCXCXCXCXCX",
"CXCXCXCXCXCXCXCXCXCXCXCXCXCXCXCXCXCXCXCXCXCXBX3XjX4X1X,XR.e r r r 0 0 e >XR.e BXCXCXCXCXCXCXCXCXCXCXCXCXCXCXCXCXCXCXCXCXCXCX",
"CXCXCXCXCXCXCXCXCXCXCXCXCXCXCXCXCXCXCXCXCXCXCXCXZXBXlX6X4X<X<X>X>X>X,X3XxXxXAXCXCXCXCXCXCXCXCXCXCXCXCXCXCXCXCXCXCXCXCXCXCXCX",
"CXCXCXCXCXCXCXCXCXCXCXCXCXCXCXCXCXCXCXCXCXCXCXCXCXCXCXCXCXCXCXCXCXCXCXCXCXCXCXCXCXCXCXCXCXCXCXCXCXCXCXCXCXCXCXCXCXCXCXCXCXCX",
"CXCXCXCXCXCXCXCXCXCXCXCXCXCXCXCXCXCXCXCXCXCXCXCXCXCXCXCXCXCXCXCXCXCXCXCXCXCXCXCXCXCXCXCXCXCXCXCXCXCXCXCXCXCXCXCXCXCXCXCXCXCX",
"CXCXCXCXCXCXCXCXCXCXCXCXCXCXCXCXCXCXCXCXCXCXCXCXCXCXCXCXCXCXCXCXCXCXCXCXCXCXCXCXCXCXCXCXCXCXCXCXCXCXCXCXCXCXCXCXCXCXCXCXCXCX"
};
