/* XPM */
static char *_af532d6c1404c35806d7f005ff1bdf336gqi0J1B3ZKb4ey[] = {
/* columns rows colors chars-per-pixel */
"64 64 232 2 ",
"   c #000000",
".  c #0B0B0B",
"X  c #080707",
"o  c #100F0F",
"O  c #151412",
"+  c #191716",
"@  c #191817",
"#  c #1D1B1A",
"$  c #12100F",
"%  c #211E1C",
"&  c #24211E",
"*  c #252422",
"=  c #2A2623",
"-  c #2C2926",
";  c #2D2B2A",
":  c #322E2B",
">  c #302F26",
",  c #38332D",
"<  c #3B3632",
"1  c #3E3A36",
"2  c #5F2C0E",
"3  c #5F2E12",
"4  c #612E0F",
"5  c #64330E",
"6  c #693B0F",
"7  c #633213",
"8  c #6B3C13",
"9  c #683918",
"0  c #713E14",
"q  c #602F12",
"w  c #433B36",
"e  c #423D3B",
"r  c #453A35",
"t  c #6A3D23",
"y  c #6D4516",
"u  c #744215",
"i  c #744D15",
"p  c #754319",
"a  c #794A19",
"s  c #785519",
"d  c #4C433C",
"f  c #49453B",
"g  c #52453D",
"h  c #574A3C",
"j  c #6D4426",
"k  c #744A27",
"l  c #7A5628",
"z  c #6D4C38",
"x  c #724D36",
"c  c #7A543D",
"v  c #7C5A3C",
"b  c #785437",
"n  c #6F5539",
"m  c #7E612A",
"M  c #7F6233",
"N  c #4B4745",
"B  c #554B44",
"V  c #5D4D43",
"C  c #564B45",
"Z  c #5C5244",
"A  c #5C5549",
"S  c #5B5753",
"D  c #634E42",
"F  c #64554B",
"G  c #6C564B",
"H  c #6C5B4D",
"J  c #685545",
"K  c #735444",
"L  c #7B5A44",
"P  c #735B4D",
"I  c #785947",
"U  c #675A53",
"Y  c #755E52",
"T  c #7A6349",
"R  c #6D6259",
"E  c #776558",
"W  c #797259",
"Q  c #726A4E",
"!  c #756C64",
"~  c #787168",
"^  c #736E6B",
"/  c #814E18",
"(  c #85521A",
")  c #8D591D",
"_  c #87571B",
"`  c #935D1E",
"'  c #82651D",
"]  c #876C1E",
"[  c #8B731F",
"{  c #875725",
"}  c #915E23",
"|  c #805738",
" . c #846726",
".. c #956224",
"X. c #9A6624",
"o. c #9D6925",
"O. c #93632A",
"+. c #9E6C29",
"@. c #8C7422",
"#. c #8F7921",
"$. c #8A712C",
"%. c #917C23",
"&. c #937D2C",
"*. c #866739",
"=. c #946734",
"-. c #8E763B",
";. c #94793D",
":. c #A16E29",
">. c #A36C24",
",. c #AB7527",
"<. c #A5722A",
"1. c #AD792C",
"2. c #AA752A",
"3. c #B27D2D",
"4. c #B57E27",
"5. c #A57833",
"6. c #B27F30",
"7. c #815D48",
"8. c #836C4B",
"9. c #866746",
"0. c #947C48",
"q. c #856B55",
"w. c #867457",
"e. c #927857",
"r. c #8E7047",
"t. c #AA7E45",
"y. c #87756A",
"u. c #947865",
"i. c #8B7A72",
"p. c #958224",
"a. c #9B8B26",
"s. c #988629",
"d. c #9E9126",
"f. c #9F9229",
"g. c #9A8837",
"h. c #B5822F",
"j. c #BC852D",
"k. c #BD892F",
"l. c #A09426",
"z. c #A59F27",
"x. c #A2962A",
"c. c #A59D29",
"v. c #A89E28",
"b. c #A78A3C",
"n. c #B58230",
"m. c #BA8632",
"M. c #BC8931",
"N. c #BE8E3A",
"B. c #B68D3C",
"V. c #BE943C",
"C. c #BF9037",
"Z. c #A5963A",
"A. c #A6A027",
"S. c #A6A029",
"D. c #AAA42B",
"F. c #ADA928",
"G. c #B1AE29",
"H. c #B4B32A",
"J. c #B7B92B",
"K. c #AFAA32",
"L. c #ADA337",
"P. c #B2AD38",
"I. c #B6B339",
"U. c #C38C2F",
"Y. c #C88F2F",
"T. c #C28D31",
"R. c #C08F39",
"E. c #C69132",
"W. c #CB9531",
"Q. c #CE9932",
"!. c #C0963D",
"~. c #C69A3C",
"^. c #D49C32",
"/. c #D89F32",
"(. c #D09731",
"). c #C8902F",
"_. c #D7A234",
"`. c #D8A032",
"'. c #D5A83D",
"]. c #BFC03C",
"[. c #C2C33F",
"{. c #9C8546",
"}. c #978456",
"|. c #A68C48",
" X c #A79646",
".X c #B69849",
"XX c #A48B5A",
"oX c #AA9755",
"OX c #B89456",
"+X c #B78A45",
"@X c #B5AB4A",
"#X c #BBB34C",
"$X c #BCB845",
"%X c #AEA15B",
"&X c #B6A758",
"*X c #BDB752",
"=X c #AFA248",
"-X c #978563",
";X c #988378",
":X c #8E8270",
">X c #A79767",
",X c #A78D75",
"<X c #B6AB62",
"1X c #BBB06F",
"2X c #C29947",
"3X c #C69D57",
"4X c #C5A64B",
"5X c #D4AC43",
"6X c #C1BF49",
"7X c #D5B14B",
"8X c #C8AE52",
"9X c #CAB75B",
"0X c #D4B955",
"qX c #C6BB67",
"wX c #CCA86D",
"eX c #C4C34B",
"rX c #C7C84D",
"tX c #C6C551",
"yX c #CACB51",
"uX c #C8C755",
"iX c #CDCA6E",
"pX c #CBC465",
"aX c #D3CB6A",
"sX c #D4C765",
"dX c #CDCB71",
"fX c #D0CE71",
"gX c #D4D474",
"hX c #998B85",
"jX c #AC9B8D",
"kX c #B4A594",
"lX c #CFB486",
"zX c #C0AEA1",
/* pixels */
"                                                                                                                                ",
"  X             X               X     X               X             X     X               X             X     X               X ",
"                                                                                                                                ",
"                                                                            d <                                                 ",
"                                                                          X G b -                                               ",
"                              O W ;                                         Z ' *.f   f R f                                     ",
"                      #       h eX Xe                                       C y f.9.-X-.g.w.                                    ",
"                    > -X>     h $XF.q.X                                     N L A.f.@XtX<Xf                                     ",
"          X   & : < }.&XjX* X A f.J.$.<   X   X         & , X     X           E @.J.eX#XH X                                     ",
"            ~ L k k Z.tXm w.E E %.J.a.A               + q.8.#   X O =         y.s H.D.r.@                                       ",
"          : l d.H.J.yXyXI.z.l.l.D.G.c.K         @ F R 8.qX%X1     :XoX~ 1 U I  .c.G.v.l ,                                       ",
"        X P a.J.H.F.P.I.P.F.A.F.S.S.x.L   O 1 E c k { qXgXoXV X   W *X@X>Xb p.H.F.D.s 9.e                                       ",
"X       N M H.G.D.S.v.a.a.p.p.[ &.s.8 9.G c l ..4.W.0XgXgX.Xj K e B &XyXL.v.H.F.$X#X8.S X                                       ",
". ^ # ; P p.H.A.A.S.s T I K K P 8.iX*.6 ) 6.(.`./.`.'.sXgX7Xj.0 x | &.[.J.G.p.$.uXrXW X X                                       ",
"# w.{.{.g.K.F.z.A.@.E           J pXgX2X/./._.Q.Q./.`._.'._./.^.X.6 ] G.l.s w.^ A dX~ o           O = r e < O                   ",
"d 8.#XuXyXrXD.A.l.9.= & @ & & # K .X0X_.^.5XsX8XM.T.W.`./.`.`.`./.>.6 a.l.u D   X & o         < h n 9.l m *.E                   ",
"X * }.#XyXeXz.z.[ J B r.OX+X=.c { R./.^.Y.B.fXoX( X.6.T.W./.`.`.`.^.y a.c.@.D * X         = J kXs.c.F.H.J.S.*.,                 ",
"    & 0.6XF.A.l.k r O L } T.(.T.T./.^.6.} 9.qX-XY c 9 { 3.T.W././.2.s A.c.a.b hX          d k kX#XG.G.G.F.D.p.8.! E R @ X       ",
"    -  .G.A.A.z.s E   e E k 3.(.^.E.<.| y.E -X@ : q.7 } m.M.M.M.3.8 s.A.A.L.l R           X < h q.9.l s a.v.c.s.|.=X,X# X       ",
"    !  .D.z.z.z.f.k r   . B | } <.} 7.e   # %   G 9 +.M.M.M.M.m.( @.c.c.S.uX{.P                   * : H i c.$XyXyX X>           ",
"    R $.c.z.D.z.z.p.k G C ; # g h d #           K X.M.m.U.1.} ( 0 ( _ '  XgXqXj J G :                 X L @.K.rX$XT +           ",
"    + h $.v.eXK.z.z.a.@.-.-.T A ,             X K >.M.M.j.U.U.Y.E.Y.U.U.9XgXaX+.( 0 P #               X hXi z.I.D. .F           ",
"      f 0.6XyXeXz.z.A.z.a.c.c.#.K           C q.*.&XsXC.T.(././.`.`.`.'.gXgXgX5X/.3.t Y                 : K p.v.v.a.b &     X   ",
"    X e.#XuX#XL.A.c.%.i _ s a.p.v Z         w.qXgXgXgX2Xm.T.W.(.^.^.^.`.5X5X5X/./.^.p I X                 D i z.z.z. .D         ",
"    e 9.oX>Xu.k #.s u M./.T.(  X&XP     X # U 0.oXqXgX.Xm.T.m.T.k.k.M.T.T.T.T.Q./.`.<.t <         X @ * % N 9 a.z.z.x.l H # X   ",
"    . % * ;   H 7 / E./.`./.0XfX%XB   f H u.- * U b 5.T.m.R.m.T.k.k.M.M.M.M.M.k.E.^.W.a I D Z g 1 : u.oX0.b 6 l.A.A.eX@X X}.Z   ",
"            N I u W././.W.^.5XaXb.c y.k o.e.+   o i.9.{ O.:.1.j.M.!.!.M.M.M.M.M.M.M.E...{.OXoX{.zX- W =XyX#XP.H.z.S.rXrX#X%XQ   ",
"          X R 9 Y././.E.3.j.E.^.^.>.) T.=.r       S ^ R q.u.hXq.l |.pXO.X.+.2.h.m.M.M.n.;.gXdX>X;   + 9.yXyXyXI.z.z.p.9.Z =     ",
"            F p W.^.W.6.0 p ..n.W.^.^.<.7.$             O ~ kX,Xv &XgX{.a / a a _ b.4XC.O.iXXXV     # c P.yXyXP.z.l.k g         ",
"            & b o.T.M.m.( t K 0 / :.<.8 x O           F K b } 1.T.7X0X7X^.^.^.Y.&XiX9XE.o.l E X     R s H.].P.A.z.m P .   X     ",
"              F 0 6.T.m.m.k D s @.y 6 [ p d         S t ` (./.^.T.T.M.T.T.E.(.^.aXgX.XM.6.0 U     & x l.J.G.z.z.a.k :           ",
"              ; i.{ m.T.4X9X1X&XZ.c.z.z.#.L %       F L t.5.O.O.O.O.} } ..o.n.j.8XoX..m.m.} L &   , k a.G.A.z.z.s P             ",
"              @ ;X9 <.M.sXgXgX>X .z.z.A.c.k g     . # = d g D h V P u.L q 5 +.M.N...} M.M.5.t e   O I  .A.z.z.z.p.c *           ",
"      X     e K a ,.(.E.2XaXqXU e.d.z.z.z.p.9.O   Q e.B       ; V Y L j s {.qXM.M.o.) M.4XqX0 K w % A k z.A.z.z.z. .T U H A %   ",
"          1 u.a T././.E.T.2X>Xg *.c.z.z.z.p.v # o 8.@X0.A C G n k y  .s.uXgXgX!.M.:.0 } pXiXy 9 x K K t p.A.A.A.z.d.m g.@XdXW   ",
"        C u.u (./.^.U.k.k.+X! b #.S.z.A.l.y E   o 0.tXuX .7 y @.f.c.S.$XpXiXgX2XM.2.0 0.gXaXO.) ) _ ( u 6 s d.F.A.eXyXrXyXoXf   ",
"        B t U./.W.k.M.M.h.p j 8 %.l.z.c.m m >Xw H -.rXyX$Xa.c.A.z.z.A.A.s.y B.C.m.T.W.7XaXsX'./././.^._.^.j.( [ A.I.yXuX=XA     ",
"      - n { 7X^.T.M.M.M.U.,.X.) a a s i y pXoXk ' x.$XP.D.A.c.z.z.A.K.K.a.6 1.M.m.T.m.T.!.E.W.W.(.^./.`././.,.y A.D.K.P.l *     ",
"    N 8.|.qXfX4Xk.M.k.T.`.`./.^.(.Y.4.,..XgX&Xu s ' #.l.z.z.z.z.S.I.rX$Xl.i p { :.:.3.6.m.T.T.m.k.T.T.E.'.'...s A.c.A.c. .E @   ",
". B {.fXgXgXgX9XM.M.k.M.U.Q.Q./.`.`.`.7XgXgXaXW.4.` 8 5 [ A.z.z.I.yXyXrXv.a.y 4 q q 7 7 7 8 a { n.k.M.9XgXgXiXpXP.A.c.A.x.| ^   ",
"  V }.<X<X1X&X4Xm.M.M.M.M.M.k.T.U.).W.7XaXgXsX`.`.`.(._ s z.z.z.c.L.eXuX .x G D w < r D Y E I q ) M.k.qXgXgXdX*XD.c.z.z.%.k <   ",
"    % :XjXjXt p } <.6.m.V.9X8X2XM.k.M.M.N.V.~.W.^.`.`.,.i z.z.] s b 0.#X}.1               . P 9 ..M.M.8XgXoX .c.z.A.z. .x d     ",
"    X X X : hXL 9 q 9 p |.gXgXpXV.M.M.M.k.k.k.k.k.)./.>.s A.c.5 H = > q.w.%           = V n 9 2 n.M.M.M.V.6 @.z.S.p.s J 1       ",
"        X X   + U ! t i  XgXgX X( <.m.M.M.k.k.k.k.k.(.` ] A.v.y H       *       O N w.M  X*X|.{.V.M.M.M.O.6 x.v. .b kXN         ",
"                  V 7 a.$XgXpXa.] i y ) 1.M.M.M.k.M.W.u %.A.A.' K O           d 9.l a.L.gXgXgXgXqXM.k.m.5 s %.l E i..           ",
"                X G 6 c.$XpXK.z.z.c.p.i u n.M.M.m.M.N.5 d.z.z.a.x :         X Y ' z.A.S.*XdXgXgX4Xk.M.:.2 k 9.F # .             ",
"                # n y f.S.D.A.A.z.z.S.@.7 n.k.M.M.M.1.6 z.z.z.v.a y.        S u.@.S.A.S.[  .pXaXN.M.M.p t i.N X                 ",
"                o G 9 y s @.%.c.z.z.S.i u M.k.M.M.M.X.s z.z.v.p.y L ,XhXy.V jXx s p.p.p.6 ( ~.R.k.M.<.7 ;XO   X                 ",
"                  : ~ C F K 2 a.z.z.a.4 ..T.T.j.M.M.( @.A.z.' 6 ( ` ` } } } ( ( ( / / ( ` ).U.m.k.n.p K .   X                   ",
"                        O z y v.z.z.s 8 3.^.T.M.M.n.p a.A.a.8 ,././././.^./././././.^.^./.W.M.M.M.:.9 d                         ",
"                      X r j p.v.S.#.2 >.^.^.k.M.m.<.8 z.c.i X.`./.Y.Y.E.Y.W.W.W.W.W.(.W.E.M.M.M.M.p Y o                         ",
"                  X 1 U q.8 #.l.x.i 5 )./.^.E.k.M.} 6 a.@.0 )./.E.M.M.j.m.T.M.M.M.M.4XsXV.M.M.M.} x w                           ",
"              o Y I 9 4 4 5 5 5 6 4 >.`././.^.M.M.a 7 5 5 ,._.W.T.M.M.j.M.M.M.M.M.~.gXgX9Xm.k.3.7 y.  X                         ",
"            * P k X.j.Y.W.W.W.Y.>.a ^.^./.`.Q.M.m.u <.+.u ^.^.M.M.M.M.M.M.:.o.:.1..XdXgXaX!.h.a q.e   X                         ",
"            i.( W./.`.`.`.`././.4.j.).E.W.W.E.k.3.o.M.o.,.(.T.j.j.M.M.M.2.6 4 4 7 7 l oXaX+Xp j N                               ",
"          : k j.`.`.`.`.`.`.`./.^._.^.).^.).M.k.j.m.M.3.T.M.M.M.M.M.M.m.p p +.2.o.0 9 e.e.e.L B                                 ",
"          G } _.`.`.`.`.`.`./.).`.`.).`.^.k.M.M.M.n.M.N.M.k.k.M.M.M.M.2...M.M.M.M.n.p I %                                       ",
"        : c 4.W.W.^./.`.`.Q.T./.`.W.`.`.W.k.k.k.M.3XlXlXM.m.M.M.M.M.M.h.M.M.M.M.M.M.n.( F o                                     ",
"        N | m.M.U.)./.`.Q.k.^.`./.).`.(.k.M.m.5.lX^ @ ^ 3Xk.M.k.m.k.M.M.M.M.M.M.M.M.m.6.K e                                     ",
"      X C { M.M.j.E./.W.k.T.`./.).)./.R.wXO.p q ! X   - wXk.M.k.k.M.M.k.M.M.M.j.M.M.M.m.{ V                                     ",
"        U =.m.T.M.M.T.M.k.E.^.E.j.U.T.3XzX;X7.P 1   X # lXU.U.M.k.j.k.T.M.M.M.M.R.2X.X+Xe.N   X                                 ",
"    X   : :X,X}.XXOXOX2X2X2XR.!.R.!.M.N.-XX   X   X   y.+XM.N.N.V.3X2XOXOXXX1Xw.~ S > - +                                       ",
"            X   . ; 1 H E W 8.8.w.w.XXoX-X. .         B oXXX8.8.w.E C d ; & @                                                   ",
"                                    . O X   .           o .                                                                     "
};
