/* XPM */
static char *result[] = {
/* columns rows colors chars-per-pixel */
"64 64 191 2 ",
"   c #000000",
".  c #070807",
"X  c #090907",
"o  c #0B0B0A",
"O  c #0F100D",
"+  c #11130E",
"@  c #181D0E",
"#  c #16190E",
"$  c #131412",
"%  c #171914",
"&  c #1A1C15",
"*  c #1B1C1A",
"=  c #1E2414",
"-  c #1E201A",
";  c #202711",
":  c #242A15",
">  c #252B1B",
",  c #24291D",
"<  c #2E3817",
"1  c #2A331B",
"2  c #313B1B",
"3  c #232622",
"4  c #262925",
"5  c #2A2D28",
"6  c #292C27",
"7  c #2E3528",
"8  c #323D22",
"9  c #30352C",
"0  c #353C32",
"q  c #393E37",
"w  c #36451D",
"e  c #3F511D",
"r  c #344122",
"t  c #384422",
"y  c #374821",
"u  c #3B4C22",
"i  c #3C4E2B",
"p  c #3F5324",
"a  c #3E552D",
"s  c #3B4038",
"d  c #3F4838",
"f  c #43551D",
"g  c #4A601F",
"h  c #425622",
"j  c #465921",
"k  c #495D25",
"l  c #43562C",
"z  c #4D5C3E",
"x  c #4A6225",
"c  c #4B6629",
"v  c #506725",
"b  c #536C21",
"n  c #516C29",
"m  c #4B792A",
"M  c #537326",
"N  c #5D7B25",
"B  c #5B7929",
"V  c #4E6A37",
"C  c #4A7030",
"Z  c #587A38",
"A  c #576B37",
"S  c #617E24",
"D  c #617B39",
"F  c #444A41",
"G  c #475343",
"H  c #4E5A43",
"J  c #52594F",
"K  c #557740",
"L  c #5A7A46",
"P  c #5C6559",
"I  c #586155",
"U  c #616A5C",
"Y  c #627D51",
"T  c #647758",
"R  c #656E61",
"E  c #6B7867",
"W  c #5C822E",
"Q  c #5D8B2D",
"!  c #5B8534",
"~  c #5C8A34",
"^  c #5D8F3A",
"/  c #58813B",
"(  c #5D9033",
")  c #658324",
"_  c #648529",
"`  c #648E2C",
"'  c #688F29",
"]  c #6D8F23",
"[  c #6D9425",
"{  c #67902A",
"}  c #6C9B2D",
"|  c #749D24",
" . c #71962B",
".. c #729E2B",
"X. c #799828",
"o. c #779525",
"O. c #648537",
"+. c #639535",
"@. c #6A9333",
"#. c #6E9B33",
"$. c #6A913C",
"%. c #6B9E3B",
"&. c #619439",
"*. c #799F31",
"=. c #7AA72B",
"-. c #7BAB2E",
";. c #7AA527",
":. c #6FA030",
">. c #76A633",
",. c #7AAA33",
"<. c #74A73C",
"1. c #7AAC3B",
"2. c #77AA38",
"3. c #7DB13A",
"4. c #698547",
"5. c #649542",
"6. c #679B46",
"7. c #6A9D44",
"8. c #73934A",
"9. c #648052",
"0. c #748A5D",
"q. c #6E9051",
"w. c #79965A",
"e. c #6EA143",
"r. c #6DA249",
"t. c #71A440",
"y. c #75A942",
"u. c #7CA041",
"i. c #7DB244",
"p. c #778D67",
"a. c #759066",
"s. c #768472",
"d. c #7B8B77",
"f. c #7B8676",
"g. c #7F9373",
"h. c #83AD26",
"j. c #8DBD25",
"k. c #83B32D",
"l. c #8CBB2C",
"z. c #86B527",
"x. c #90BF25",
"c. c #92BD29",
"v. c #82AF34",
"b. c #82B534",
"n. c #86B935",
"m. c #8BBE33",
"M. c #81B53A",
"N. c #86B938",
"B. c #8FC02A",
"V. c #92C426",
"C. c #99CB27",
"Z. c #93C42B",
"A. c #9BCB2A",
"S. c #97C925",
"D. c #8DC134",
"F. c #97C730",
"G. c #95C736",
"H. c #A3D32C",
"J. c #A9D92F",
"K. c #B2E12D",
"L. c #82A64A",
"P. c #88B645",
"I. c #818E7C",
"U. c #84987C",
"Y. c #85A160",
"T. c #89A274",
"R. c #9EB279",
"E. c #A1B872",
"W. c #98C255",
"Q. c #869381",
"!. c #899383",
"~. c #8B9A85",
"^. c #8A9A85",
"/. c #919C8A",
"(. c #8FA386",
"). c #95A28E",
"_. c #95AA8A",
"`. c #9BAC94",
"'. c #97A591",
"]. c #A0AD99",
"[. c #A8B89E",
"{. c #A9BAA1",
"}. c #B0BEA8",
"|. c #B7CD9A",
" X c #B7C7A5",
".X c #B5C4AD",
"XX c #BFCFB8",
"oX c #C3D2BB",
"OX c #C8D6C0",
"+X c #CBDAC2",
"@X c #D0E1C7",
/* pixels */
"                                                                                                                                ",
"                                                                                                                                ",
"                                                                                                                                ",
"                                                                                                                                ",
"                                                                                                                                ",
"                                                                                                                                ",
"                                                                                                                                ",
"                                                                                                                                ",
"                                                                                                                                ",
"                                                                                                                                ",
"                                                                                                                                ",
"                                                                                                                                ",
"                                                                                                                                ",
"                                                                                                                                ",
"                                                                                                                                ",
"                                                                                                                                ",
"                                                                                                                                ",
"                                                                                                                                ",
"                                                                                                                                ",
"                                                                                                                                ",
"                                                                                                                                ",
"                                                                                                                                ",
"                                                                                                                                ",
"                                                                                                                                ",
"                                                                                                                                ",
"                                                                                                                                ",
"                                                                                                                                ",
"                                                                                                                                ",
"                                                                                                                                ",
"                                                                                                                                ",
"                                                                                                                                ",
"                                                                                                                                ",
"                                                                                                                                ",
"                                                    $ X                                                                         ",
"                                                  . * .                                                                         ",
"                                              . o z I .                                                                         ",
"                                . .       + 2 b z `.~.%               .                                                         ",
"                                  * 5 5 6 S j.x.| Z 4.k #             $ %                   .                                   ",
"                                    F {.8.l.L.A : ; f ;.f             * P 4 o @ = # o   . , %                                   ",
"                                    % w.=.v I 0     . b ] o           * '.}.4.z.j.h.M G E ).+                                   ",
"                                    u l.S o o * .     k | o           0 (.U.@.S.S.V...a.XXI.                                    ",
"                                  O  .c.<     o     o ) ) X         2 { #.;.V.A.A.S.j...q.T o                                   ",
"                                  $ v.k.>   X & % + w | h o       > h.l.Z.V.Z.h.c.H.S.V.z...;                                   ",
"                                  $ k.F.e   X > y h b e % 4     $  .Z.B.c.S < & ; o.A.C.=.Z.j                                   ",
"                                  $ ..F.) o   o % + O . o s.* o N Z.l.k.j O       H L.A.Y.P.S X                                 ",
"                                  . n D.m.u O q %       + {.~.k F.l.l.r O     o q .X_.m.R.E.] +                                 ",
"                                    - ,.v.O.I.].X     O 0 oX+XT.n.k.r . * O   O * G p.c.L.Y.[ o                                 ",
"                                    X k ,.! (.].8 , 2 h K U.g.! =.t .   - J $     & ' H.z._ ' O                                 ",
"                                      o j >.#.` M.m.D.N.,.:.Q f - X     % )./.3 = X.K.H.D.k.M .                                 ",
"                                        . , c @.>.,.>.@.4.8 + X         % Q.+X[.>.J.F.D.m.=.y                                   ",
"                                            o o + % + 3 {.q .   . o % : a ^.`.4.,.m.n.m.-.` $                                   ",
"                                                      9  X|.D B _  .3.n.{ Z B } b.n.b.=.W =                                     ",
"                                                  % w O.W.W.N.M.3.M.1.$.4.p.0.D #.} B h &                                       ",
"                                              o r O.2.1.2.,.3.3.3.2.O.T {.oX.Xz h 1 % o                                         ",
"                                  o X o . . % l +.1.<.1.1.1.>.%.W c u 7 f.+XE $ .                                               ",
"                                  . 6 d.I.I.].9.( 2.<.<.Q ~ ~ r $ . .   4 !.5                                                   ",
"                                    o U +X@XXX/ ( t.t.:.m `.d .         o 6 o                                                   ",
"                                      $ f.oX`.Z e.t.e.( Z +X.XP $         o                                                     ",
"                                      o H _.9.&.e.e.6.~ L OX@XXXR * .                                                           ",
"                                      : Z Y ^ r.e.e.6.~ K .X^.F % .                                                             ",
"                                      e } ^ y.r.r.e.5.^ C d.7 .                                                                 ",
"                                      N i.P.i.r.r.6.r.^ m V -                                                                   ",
"                                      x i.P.i.r.6.6.r.5.^ 5.a                                                                   ",
"                                      O i &.t.r.r.6.6.5./ a %                                                                   "
};
