/* XPM */
static char *_0e22430cca4404ee11e6d0c70735335NM8KSrQN1oYMmBmJ[] = {
/* columns rows colors chars-per-pixel */
"64 64 7 1 ",
"  c black",
". c #264F27",
"X c #795548",
"o c #4CAF50",
"O c #8BC34A",
"+ c #009688",
"@ c #FAFFC2",
/* pixels */
"                                                                ",
"                                                                ",
"                                                                ",
"                                                                ",
"                                                   +++++        ",
"                                                   +oooo        ",
"                                                 +++ooooo       ",
"                                                ++oooo  o       ",
"                                                +oooo           ",
"                                       ++++++++++ooo            ",
"                                      ++oooooooooooo            ",
"                                      +oooooooooooo             ",
"                                      +oo    ooo@@@@@@@@@@O     ",
"                                      +o      o.@OOOOOOOOO      ",
"           O@                   O@@   +o    +++.@OOOOOOOO       ",
"            O@                   O@@   o   ++oo.@OOOOOO         ",
"            OO@                  OO@@     ++ooo.OOOOOO          ",
"             OO@                  OOO@   ++oooo..OOO            ",
"             OOO@                 OOOO@@++oooooo..              ",
"             OOOO@                 OOOOO.oooooooo               ",
"              OOOO@++++             OOOO.ooooooo                ",
"              OOOO.ooooo            OOOO.ooooo                  ",
"              +O...oooooo            OOO.ooo                    ",
"             ++..ooooooooo           +O.oooo                    ",
"            ++oooooooooooo           +..ooo                     ",
"            +ooooo    ++oo           +ooooo                     ",
"            +ooooo     +oo           +ooooo                     ",
"            +oooo     ++oo           +oooooo     @@@O           ",
"            +ooo     ++ooo           +ooooooo@@@@@OO            ",
"            +ooo     +ooo            +oooooo@@OOOOO             ",
"            +oo     +oo             ++oooo.@OOOOOO              ",
"            +ooo               +++++++oooo.OOOOOO               ",
"            +ooo           +++++oooooooooo.OOOOO                ",
"    O@@@@@@@@@.o        ++++oooooooooooooo.OOOO                 ",
"     OOOOOOOOO.oo       oooooooooooooooooo..OO                  ",
"       OOOOOOOO.ooooooooooooooooooooooooooo..                   ",
"          OOOOO.oooooooooooooo   ooooooooooo                    ",
"             OO.oooooooooooo       +oooooooo       O            ",
"              ..ooooooooo          +ooooooo       @O            ",
"                                   +ooooooo      @OO            ",
"                        O@@@       +ooooooo     @OOO            ",
"                         OO@@@    ++ooooooo    @OOOO            ",
"                          OOO@@  ++ooooooo++++ OOOOO            ",
"                           OOO@@@+oooooooooooo OOOO             ",
"                            OOOO@@.ooooooooooo..OOO             ",
"                             OOOOO.oooooooooooo...              ",
"                            ++OOO..ooooo    +ooooo              ",
"           O@             +++o....ooooo       +ooo              ",
"           OOO@         +++oooooooooooo       +ooo              ",
"            OOO@@     +++ooooooooooooo        +ooo              ",
"            OOOOO@@ +++oooooooooooooo   +o   ++ooo              ",
"            OOOOOO@@+ooooooooooooooo    +oo ++oooo              ",
"             OOOOOOO.oooooooooo..@@@@@  +ooo+oooo               ",
"             OOOOOO..oooooooooo.OOOOO@@    ooo                  ",
"             OOOOOO.ooooooooooo.OOOOOOOO                        ",
"             OOOO...ooooooooooo.OOOOO                           ",
"             OO...ooooooooooooo..OOO                            ",
"              ..oooooooooooooooo..                              ",
"              +ooooooooooooooooooo                              ",
"              +oooooooooooooooooooooo                           ",
"XXXXXXXooooooooooooooooooooooooooooooooo                        ",
"XXXXXooooooXXXXXXoooooooooooXXXXXXXXoooooo                      ",
"ooooooXXXXXXXXoooo       XXooo     XXXXXXooooooooooo            ",
"ooo  XXXXXX ooo            XXXooo       XXXXXXXXXXXooooooo      "
};
