/* XPM */
static char *d654b8fb372f4e7fc06227afdb04bc8eWTzdpeFZNeXVEpaa[] = {
/* columns rows colors chars-per-pixel */
"64 64 223 2 ",
"   c #000000",
".  c #0B0B0B",
"X  c #141414",
"o  c #1C1C1B",
"O  c #181817",
"+  c #1F201D",
"@  c #22241E",
"#  c #24291D",
"$  c #292F1E",
"%  c #2C331E",
"&  c #2E381C",
"*  c #323C1E",
"=  c #222322",
"-  c #262A23",
";  c #292C24",
":  c #2A2D29",
">  c #2C3322",
",  c #2C322B",
"<  c #2E3C23",
"1  c #323927",
"2  c #323631",
"3  c #343A33",
"4  c #3A3D38",
"5  c #3A461E",
"6  c #38491D",
"7  c #3F6C1C",
"8  c #354221",
"9  c #3B4B21",
"0  c #394725",
"q  c #3E5C28",
"w  c #3E483B",
"e  c #3D6524",
"r  c #414E1E",
"t  c #43531E",
"y  c #495D1E",
"u  c #4C611D",
"i  c #546B1E",
"p  c #59771F",
"a  c #49771E",
"s  c #455925",
"d  c #414D3E",
"f  c #435B38",
"g  c #414D21",
"h  c #4B6321",
"j  c #426D23",
"k  c #42652A",
"l  c #4B6929",
"z  c #516423",
"x  c #546B25",
"c  c #427221",
"v  c #4B7D24",
"b  c #4A7627",
"n  c #567224",
"m  c #587928",
"M  c #4A6636",
"N  c #536B36",
"B  c #4F7237",
"V  c #577536",
"C  c #617F27",
"Z  c #617F35",
"A  c #454D43",
"S  c #484E45",
"D  c #4A5747",
"F  c #545C51",
"G  c #50594E",
"H  c #4E6744",
"J  c #556A47",
"K  c #59754A",
"L  c #586555",
"P  c #5A7353",
"I  c #5C7457",
"U  c #627B48",
"Y  c #616C59",
"T  c #657A59",
"R  c #6A7866",
"E  c #727D6C",
"W  c #4C8028",
"Q  c #548423",
"!  c #51832B",
"~  c #5B8C2B",
"^  c #5A8825",
"/  c #5E912A",
"(  c #5A8D32",
")  c #5A8A37",
"_  c #5E9232",
"`  c #5F913D",
"'  c #638223",
"]  c #628D2A",
"[  c #688928",
"{  c #728F28",
"}  c #639123",
"|  c #63952D",
" . c #6B922B",
".. c #699828",
"X. c #719B2C",
"o. c #759826",
"O. c #638435",
"+. c #688C34",
"@. c #639433",
"#. c #6A9633",
"$. c #6D9C35",
"%. c #63943C",
"&. c #66993B",
"*. c #689B38",
"=. c #729935",
"-. c #6EA123",
";. c #74A42C",
":. c #7AAB2A",
">. c #78A626",
",. c #7EB12D",
"<. c #7FB125",
"1. c #6EA03A",
"2. c #74A333",
"3. c #7BAD34",
"4. c #73A63C",
"5. c #76A93B",
"6. c #7AAC3A",
"7. c #78A733",
"8. c #7EB134",
"9. c #7EB23B",
"0. c #71961F",
"q. c #5B8540",
"w. c #629341",
"e. c #679B46",
"r. c #699D44",
"t. c #6A864F",
"y. c #6EA142",
"u. c #6DA34A",
"i. c #73A642",
"p. c #70A74B",
"a. c #74AA4A",
"s. c #77AC43",
"d. c #7DB243",
"f. c #7CB148",
"g. c #6C8469",
"h. c #798674",
"j. c #798A74",
"k. c #7E957A",
"l. c #7B9579",
"z. c #788B6C",
"x. c #81AD25",
"c. c #82A527",
"v. c #84B426",
"b. c #8BBD25",
"n. c #84B62D",
"m. c #86B92A",
"M. c #8ABC2B",
"N. c #89B528",
"B. c #95BC2A",
"V. c #85AF31",
"C. c #82B533",
"Z. c #86BA35",
"A. c #8ABD34",
"S. c #81B53B",
"D. c #84B93B",
"F. c #8AB937",
"G. c #8FC026",
"H. c #8EC22C",
"J. c #94C525",
"K. c #96C925",
"L. c #9ACC26",
"P. c #92C52B",
"I. c #96C92B",
"U. c #9ACC2B",
"Y. c #9AC52B",
"T. c #9ED12C",
"R. c #8DC133",
"E. c #8CC039",
"W. c #92C534",
"Q. c #9BCD32",
"!. c #94C737",
"~. c #9ED030",
"^. c #A2D42B",
"/. c #ABDC2C",
"(. c #A7D62C",
"). c #B0DE2B",
"_. c #AADA30",
"`. c #B4E32D",
"'. c #81B546",
"]. c #87BA44",
"[. c #88BB44",
"{. c #828D7D",
"}. c #84957C",
"|. c #84986F",
" X c #99B273",
".X c #96C344",
"XX c #A7D24D",
"oX c #BADC72",
"OX c #889B83",
"+X c #919B87",
"@X c #89A285",
"#X c #94A48E",
"$X c #90A98C",
"%X c #99A591",
"&X c #9AAC93",
"*X c #9DB399",
"=X c #A0AC98",
"-X c #A5B49D",
";X c #A5B69C",
":X c #ABBDA4",
">X c #A9B9A2",
",X c #B3BBA9",
"<X c #BFDA8E",
"1X c #ADC1A7",
"2X c #B3C3AC",
"3X c #BCCBB4",
"4X c #B7C8B0",
"5X c #BFD0B7",
"6X c #C4D3BC",
"7X c #C7D6BD",
"8X c #C4D6B1",
"9X c #C9D7C1",
"0X c #CCDBC3",
"qX c #D1DFC6",
"wX c #D0D1C3",
"eX c #D1E1C6",
"rX c #D4E3CA",
"tX c #D8E7CD",
"yX c #D9E8CE",
"uX c #DCEBD1",
"iX c #CEE0C5",
"pX c #E1E1D7",
"aX c #E1F1D6",
/* pixels */
"                                          =                                                                                     ",
"                                        . =                                                                                     ",
"                                        o o                                                                                     ",
"                                      X + =                                                                                     ",
"                                    . : L =                                                                                     ",
"                                . + - h.>Xo                                                                                     ",
"                        . o o - , D OX0X,X:                                                                                     ",
"O .                 . = % i o.} M }.3X0X6XF O                                 O                                                 ",
"  = + o .         = # ' J.L.L.L.-.j I #X1XE # O                               o O                                               ",
"  . = o = = = + = h J.L.L.L.K.J.J.v.} a 7 a p $ o                             O + O                                             ",
"    . = =X*X{.{.k b.K.L.v.-.o.p t 5 5 t [ J.L.0.; .                           X w 2 O                                     o O   ",
"      o A qXiX4Xj U.U.^ t.+Xd # O . . O # 6 N.L.p @                           O G -X2 O     . O o = o O .             O : =     ",
"      . = :X2XP ;.^.Q R 3X2X: .           o y U.x.% .                         + S 9X2XF : 0 6 u i i i y 6 8 + O o o : F h.o     ",
"        = l.t.! U.N.& , L &X:             . 1 b.b.r .                         o D 6XrX6XOXZ v.K.K.L.K.K.b.^ q w d L OXtXY o     ",
"      . # B } U.B.* o . o 2 = .           . > x.P.u O                         o R 5X0X7X-XB ..J.J.J.K.K.L.^ q OX1X5XrXyX2 .     ",
"      + h ,.^.^.s o       O = X           . > v.J.u O                       O 3 k.1X>XOXN Q b.L.L.L.J.b.G.,.b P 1X9XqX9X=       ",
"      = V.^.^.V.=         . = O           . < J.J.y X                     . % f t.K H j ^ b.L.K.L.L.L.L.b.b.-.j R 1X7X6X=       ",
"    o 5 P.^.^.i o             O           X s I.x.5 .                   X $ m Q v ^ ..>.b.K.K.Y.K.K.K.K.K.b.G.-.7 K @X:X- .     ",
"    o m W.~.^.g X                         # { J.} $ .                 . % { I.M.,.P.K.M.L.U.T.^.^.^.L.L.K.K.N.J.<.^ 7 e 6 +     ",
"    +  .P.~.^.g O       . O O O . .   . O s H.m.s = .               . - ' K.P.v.G.I.M.K.L.(.).).).`.`.(.K.I.J.b.K.P.<.>.} ;     ",
"    o X.W.Q.T.h X       . + * * > # # - 9 :.M.C # = =               + z I.I.N.n.P.P.G.T.Y.c.C y i ' B.).).L.L.L.G.K.b.U.v.6 O   ",
"    o X.H.Q.U. .o       . @ 1 l n m ' ' >.o.i $ X O o O           O 5 P.I.P.n.J.I.P.I.o.9 o X X X X % c.`.(.U.U.P.m.N.K.G.^ o   ",
"    +  .R.W.~.W.; .         O O @ $ 8 6 9 & o .   o S : .       X > V.U.P.m.M.I.Y.N.h @ O           . % B.v.^.U.I.v Q M.I.o.=   ",
"    o m M.W.Q.Q.g O             O . X . X .       o E R =     . - { U.I.M.H.W.Q.c.9 o                 + Y +.b.(.N.K %X=.I.v.% . ",
"    o s Z.R.Q.U.c.= .       . o +                 + j.7X4 o . @ m U.Q.M.n.W.T.o.> +                 o 4 3X&X} `.G.t.pX=XB.x.6 O ",
"    . $ 3.A.R.Q.Q.l o     . = : X                 + }.uX&X: + z Q.Y.H.m.H.I.{ > O               . o A >XqX3XV U.U.T pX,XB.x.u o ",
"      = m A.A.W.Q.W.9 = = : h.A .               . - $XtXrX+Xz Q.Q.R.H.n.I.{ 3 + o o         . O o L 8XqX0X3XU H./.V wX=XM.x.n o ",
"      O % 3.A.A.n.V.O.3 L >X3X2               X = w 2X0XqX0X&X+.A.M.R.n.{ # .   X = O         o + : 2 D $X1XU G.`.Q +X{.:.<.n O ",
"        = n 8.Z.;.e g.-X9XrX2X:             + + < g.5X9X9X9X4XB ;.A.A. ., o     . o = .             . + : z.V I.`.>.V z.>.:.n O ",
"        X - X.3.Z./ e k.5X0X,X: o . . X o o + 6 H @X*X:X>X#XJ ~ ;.A.X.> o         + F 2 o             . @ #.^ (.`.P.W M ;.:.x @ ",
"          o > 2.3.8./ e j.1X2XU x s 9 g s ' X.] b M J P H l / -.:.[ > O           O h.+X2 X           o g ^.m.`.).W.,...m.:.q O ",
"            o * 2.3.Z...v e B ) !.!.!.!.!.!.E.3.@.| ~ ~ ~ / ^ m 8 : :             O L rX=X4 + .     O 1 I.`.`.`.~.H.n.M.,.:.& X ",
"              = > ] 7.8.8.2...;.D.Z.Z.F.D.Z.Z.Z.8.8.8.7.] b 5 @ o .               X w 3XtX3XL : = : g B.`.`.`.^.!.C.n.H.;.X.=   ",
"                X - 9 m 7.8.6.8.3.3.3.3.3.8.8.D.C.;.m 9 % + O .                   . 3 >XeXqX9X>XG ' (.`.`.).!.!.R.C.R.C.:.^ =   ",
"                  . o = 8 e O.=.2.7.7.7.2.#.m V  Xw @ + .                         o d :X0X9X9X3Xt.:._._.Q.R.R.R.n.A.R.:.;.9 o   ",
"                      . O o = = @ - $ # @ = + 4 7X#X@ .                       X + # L 1X9X5X:XT ^ :.W.W.R.R.C.C.R.R.:.;.[ -     ",
"                                  . .   .   . A iXtXR = .         . . O = - ; 5 x l g.@X$Xk.P m ..C.Z.Z.C.C.Z.R.R.C.;.;.* o     ",
"                                            X A 0XyX0Xh.- o + = # % 0 z { V.B.Q.,.m M M k B !  .3.C.8.Z.Z.R.R.Z.8.2.;.s =       ",
"                                            O Y 9XtXeX8X X{ 7.V.A.B.W.W.E.D.D.D.3.@.] ( ~ ] #.7.3.F.E.F.R.Z.3.2.;. .9 =         ",
"                                        . O - |.<XoXXX_.!.!.A.Z.D.D.S.9.9.V.3.6.=.+.Z Z Z O.O.O.O.2.C.8.7.2.;.;.x < =           ",
"                                    X o % x =.[.!.D.D.S.9.9.9.9.6.6.S.S.V.S.=.O.N N Y T R Y N n O.X.2.;.2. .l 8 = X             ",
"                                O @ 1 m 7.D.F.S.8.6.6.6.3.3.9.S.D.D.S.S.4.~ M L |.%X2X3X9X3X;XJ #.#.~ l 9 > @ O .               ",
"                            . o < V 6.S.V.5.5.5.5.5.5.9.9.S.S.9.9.6.2.2.+.B D &X:X6X9X0X0X0Xh.0 8 < # o O .                     ",
"                          X - h #.9.S.6.4.5.5.5.5.9.9.9.d.6.5.2.$.$.$.$.#.V s d OX6X0XrXqX%X4 = X . .                           ",
"  . . .                 o @ m | @.6.5.4.4.5.5.5.9.d.9.4.2.1.$.1.$.] l 9 8 > o o : j.0XtX6XA O                                   ",
"    : o @ + o o X X o = A R M ~ _ 4.4.4.i.4.5.'.6.#.*.$.$.$.*.B 0 > o O . . .   X 2 :XuX{.=                                     ",
"      : 3 #X#XOXk.OX+X>X3X2XJ ( _ 4.4.4.4.5.'.=.@.v v %.*.) 0 = O .               O E 0XS X                                     ",
"      . : L qXaXuXtXqXqX0X2XN ( _ 4.i.4.4.s.4.$.! j H N l $ o .                   X 2 h.=                                       ",
"        . = Y 7XyXrXiX0X9X*Xk ( _ i.u.1.s.s.1._ 7 e :X$X, 4                         o , O                                       ",
"          . : j.7XeX0X9X5Xj.e ( 1.4.4.4.s.1.&.~ 7 K 9X0X+X2 o                       O - .                                       ",
"            O 3 $X0X0X9X*XP B _ y.i.1.i.s.&._ ~ e R 9X0XqX-XA o X                     o                                         ",
"              = g.4X7X2Xj.f ( &.y.y.y.i.u.*.` W q l.9X0XiXyX6X{.3 O X                                                           ",
"              + D $X:XOXM ! _ r.y.y.y.y.i.` _ W q @X9X9XiXyXuXaXuX{.: + O                                                       ",
"            X * M @X@XJ B ( y.y.y.y.e.y.u.&._ W q l.6X9XiX0X6X*XR , + o .                                                       ",
"            = { q OXL b ( y.p.y.y.y.y.y.y.&.&.W e g.4X9X4Xl.A : + .                                                             ",
"            @ N.e w b _ &.p.u.y.y.u.y.y.y.` ` W e I *X-Xg.: +                                                                   ",
"          O 6 v.( _ ( 1.s.p.p.y.u.r.y.&.y.w.` ( e H @Xj., :                                                                     ",
"          + ' M.( _ 4..Xa.p.u.r.e.e.r.r.r.r.` ( v q l.3 =                                                                       ",
"          o >.A.u.f..Xd.a.p.u.y.u.e.e.e.r.r.w.` W e d k =                                                                       ",
"          - v.R.p.f.d..Xf.p.u.e.e.e.e.u.e.r.r.w.( 7 ` w.1 =                                                                     ",
"          O >.R.p.'.].].f.p.u.e.e.e.e.e.e.e.e.w.` W w.w.B @                                                                     ",
"          o 5 F.p.d.].].f.p.u.e.e.e.e.e.e.e.e.e.w.w.w.` B +                                                                     ",
"            O > q.f.].].f.p.u.e.e.e.e.e.e.e.e.e.w.w.) q @ O                                                                     ",
"              O + > M _ i.p.e.e.e.e.e.e.e.e.e.q.B 0 : = X                                                                       "
};
